<svg xmlns="http://www.w3.org/2000/svg" viewBox="0 0 512.67 566.93"><defs><style>.cls-1{fill:none;}.cls-1,.cls-2{stroke:#fff;stroke-miterlimit:10;stroke-width:0.5px;}.cls-2{fill:#ec2024;}.cls-3{fill:#f69220;}.cls-4{fill:#ffcb4b;}.cls-5{fill:#a2b969;}.cls-6{fill:#41c5eb;}.cls-7{fill:#4fc0ee;}</style></defs><g id="Layer_2" data-name="Layer 2"><g id="Layer_2-2" data-name="Layer 2">
<path class="cls-1" d="M195,230c-.49,0-.57.76-.54,1.2A1.1,1.1,0,0,0,195,230Z"/>
<path class="cls-1" d="M229.17,233.65a.79.79,0,0,0-.51.31.27.27,0,0,0,.39.17C229.12,234.08,229.15,233.88,229.17,233.65Z"/>
<path class="cls-1" d="M168.16,304.74c0-1.47-1-1.1-2-1.2a7.42,7.42,0,0,0,.78,2.09A1.24,1.24,0,0,1,168.16,304.74Z"/>
<path class="cls-1" d="M159.61,121.3c-.26,0-1.24-.22-1.35.06C158,122.18,159.77,124.67,159.61,121.3Z"/>
<path class="cls-1" d="M87.21,326.53c-.4,0-.75,1.23-1.94.55-1.84-1.05.06-1.6.62-2.12.29-.28,1.74.26.68-.81s-2.46.13-2.83,1.13a2.25,2.25,0,0,0,1.16,3,3.08,3.08,0,0,0,1.47.21C87.57,328.16,87.28,327.92,87.21,326.53Z"/>
<path class="cls-1" d="M385.88,199.53c-.51,1.25-1,3.92,1.15,3.47-.76,1.16-1.85,2.26-2.52,3.43,0,0-.58,1.63-.56,1.6-.5.64-1.34-.06-1.45.87,1.79-1.53,1.86,1.48,2.15,2.42.14.47.78,1.35.83,1.67.1.59-.62,4.48-.06,2.94.11.9-.3,2.34.1,3.23-.33.87,0,1.19.88,1a3.67,3.67,0,0,0,1.51-.1c.46-.63-.12-2.64-1.14-2.33-.11-1.84.13-1.31.74-2.25,1.32-2.06,1.87-1.38,4.09-1.8,1.06-.21,1.28-.84,1.79-1,.24-.1.94-.11,1.37-.24,2-.62,3.36.18,5.27.4,2.24.26,4.88-.84,7,.26.64.33,1,1.69,1.55,1.71s.85-1.73,2-1.15-.62,2.72,1.28,2.27c.47-.11,1.18-1.58,1.57-1.81a7.68,7.68,0,0,1,2.47-.63c-1.59-1.69,2.26-5.06,3.54-1.49,1-2.47.33-2.74,3.26-2.69a25.42,25.42,0,0,0,3.45-.27c.57-.05,3-.71,3.21-.13.39,1.14-1.48,1.3-1.87,2.12,1.7.57.61,3.17.63,4.38.95-.06,1.85-1,2.87-1.07,1.6-.18,1.57.36,2.73.91a24.43,24.43,0,0,1,2.79,1.31c.51,1.06-1.06,2,.09,3.39.87,1,4,1.56,2.47,3.83-1.25,1.84-6.29,2.82-6.28,5.13,0,1.83,1.35.81,1.65,1.73.14.45.54,1.18.13,1.62-1.13,1.21-3.06-1-4.29-.92-.43,1.29,1,2,.76,3.24-.08.45-.62.52-.76.89a10.92,10.92,0,0,0-.49,1.82,18.33,18.33,0,0,0-.36,2.32c0,.41.25,1.81.19,2.63,3-.35,3.6-1.38,3.69,1.69,1.67,0,1.09-1.39,1.66-2.2.23-.33.81-.06,1-.33s.48-1.26.62-1.53.63-.48.81-.91a11.17,11.17,0,0,0,.2-3.18,6,6,0,0,0,1.39,2c1.44,1.29.66.81,2.43.33,2.09-.56.7.72,1.68-.86a7.77,7.77,0,0,0,.73-3.8c0-.57-.22-3,.14-3.32s.8.19,1.23-.2c.78.23,1.07-.12.88-1a8,8,0,0,1,.18-1.19,2.72,2.72,0,0,0-.45-2.13c1.8.18,1.86-2.72,2.73-4,.67-1,1.35-1.14.89-2.61-.24-.79-.18-.71-.54-1.17s-1.42-.51-1.65-1.39c-.38-1.43.74-1.11,1.67-2a5.35,5.35,0,0,0,.93-1.37,6.69,6.69,0,0,1,1.68-2.36c.25-.26.92-.33,1.06-.72s-.75-1-.42-1.5a3.6,3.6,0,0,1,2.23-.76c.61.28.09,1.51.94,1.87,1,.45,1.91-.62,2.08-1.47.13-.65-.46-1.31-.3-1.95.07-.28.53-.65.54-.88s.34-.56.37-.7-.46-1.27-.51-.74c0-.17.35-1,0-.62.74-.78,1-2,1.62-2.88s1.1-.63,1.53-1.63c.36-.83-.1-2.07.73-2.75,2.62-2.17.64,2.58,2.59.64,1.28-1.26.93-3,2.66-4.25,1.35-.95,3-1.31,4.16-2.53.58-.61.75-1.87,1.25-2.34.86-.79,2.38-.77,3.36-1.46.74-.52,1.15-1.29,1.89-1.76.39-.25,1.06-.06,1.51-.34.07,0-.08-.53,0-.58a7.07,7.07,0,0,0,1.82-1.16c.49-.64.28-1.29.76-2,1.09-1.55,2.71-.38,4.39-.84s4.94-1.19,4.09-3.65c-2.49,2.17-2.26-.5-3.16-2.37-.56-1.18-1.64-2.84-1.09-4.41.34-.95,2.16-1.8,2.24-2.83-1.13-2.24-13.6,4.55-15.61,5.41a29.83,29.83,0,0,0-3.45,1.95,37.37,37.37,0,0,1-4.73,2.54,11.66,11.66,0,0,1-1.78.6c-1,.06-2.27-1.15-3.2-.92-.15.82,1.19,1.92.56,3.15s-2.53,2.45-3.56,3.58a7.34,7.34,0,0,0-1.87,3.14c-.22.75,0,1-.2,1.43,0,0-2.25,2-2.2,1.95-.92.56-2.17.35-3.19.52a36.47,36.47,0,0,0-3.94.6c-1.39.41-2.33,1.28-3.92,1.12-3.15-.34-5-1.91-8-.36a29.66,29.66,0,0,1-6.36,2.17c-.78.2-1.87.88-2.52,1a5.85,5.85,0,0,1-1.67-.13c-2.32.34.13.8-1.72,2-.37-2.3-1.05-.66-2.14-.34a14.34,14.34,0,0,1-2.09.11c-.77.1-1.24.86-2.1.69-.07-1.68-.93-1.28-2.08-.76-.69.31-.55.85-1.45,1.2a5.92,5.92,0,0,1-2.14,0c-2.94-.15-6.39.87-9.35-.23-1.29-.49-2.19-1.62-3.6-1.89a5.06,5.06,0,0,0-1.94.06c-1.15.43-.31.44-1.05,1C390.62,197.24,386.91,197,385.88,199.53Z"/>
<path class="cls-2" d="M218.61,165.23a9.47,9.47,0,0,0,2.15.76c.5.16.41,1.12,1.22,1,.23-3.62,1.8-1.06,3.54.25,2,1.52,3.27,1.59,5.38,2.62,1.87.93,3.84,1.32,4.5,3.49.73,2.43.22,1.35,2.29,2.26a25.63,25.63,0,0,1,3.35,2.19c0,.22,0,.44,0,.66l1.15.51c.59.37,1.42.37,2,.73.23.14,1.27,1.21,1.38,1.22.51.05.71-.48,1.07-.5,1-.05.91-.55,2.12-.22a20.72,20.72,0,0,1,4.37,2c.87.56,1.38,1.61,2.37,1.92,1.26.38,3.14-1.27,4.31-.57s.79,3.06.85,4.06c2.25.14,3.71.4,5.82.56,2.35.17,2.56,2.89,4.33,2.33,1.11-.36,1.08-1.6,1.79-2,1-.58,3.44,0,4.4.36a8.09,8.09,0,0,1,4.49,4.16c.37.91.27,1.94.79,2.64s.82.06,1.26,1.38-.35,2.31,1.2,3.1c.64.32,2.16-.1,2.51.27.75.81,0,2.15.95,2.81.08.05,2,.6,1.91.8-.28.81-3.46.16-4.06.27-1.13.21-1.35,1-2,1.31s-1.47-.31-2.09.65a1.89,1.89,0,0,0,.44,2.11c1.11.95,3.22,0,3.76,1.51.6,1.66-1.81,2.06-3.09,1.9.77,2.45,3.68,4.88,5.64,6.09a17.86,17.86,0,0,0,3.14,1.6c.73.28,2.84.72,2.18,2.12-.58,1.2-3.65-.33-4.58-.07-.36.1-1,1-1.16,1-.77-.06-.42-.84-1.39-1-1.93-.26-1.91,1.47-3,2.42-.63.57-1.61.72-2.23,1.39s-.76,1.64-1.46,2.27c-2.64,2.37-7,2.2-8,6.11a9.65,9.65,0,0,0,.86,6.11c.75,1.35,3.39,2.24,2.67,4.26-.41,1.14-1.71.82-2.09,1.45-.47.78.28,2.05.18,2.74-.05.4-.29,1.41-.39,1.83s.5.58.39.91c-.43,1.35-2,.88-.85,2.73-1.43,0-1.8,1.9-2.2,2.82-.7,1.54-1.08,2-3.25,1.52-.61-.12-3.95-1.6-3.82-2.36-.2,0-.4.05-.6,0,0,.06-1.45-2.86-1.44-2.23a2.7,2.7,0,0,1,.8,0c0-1.35.58-1.78.83-2.89a10.62,10.62,0,0,0,.34-1.26,1,1,0,0,0-1-1.31,3.7,3.7,0,0,1,0-1.69c-.64-.07-.58.29-.55-.72,1.21.37,2.18-.26,1.73-1.6-.24-.75-.79-.46-1.18-.9-.85-.95-.67-1.34-2.25-1.34-.16,0-1,.54-1.36.6-.74.11-2.18-.39-2.83-.06-.83.43-.73-.09-.56,1.57a1.43,1.43,0,0,0-.79-.56c-.11,0,0-.84,0-.95s-1.08-.08-1.13-.19c-.41-.82.33-1.55-.35-2a12,12,0,0,0-1.77-.37c-.05,0,0-.65,0-.66-.93-.25-2.65.58-3.34-.26s.32-2.1-.18-2.74c-.29-.37-2.37-.08-2.76-.24s-.39-.93-.71-1a4.33,4.33,0,0,0-2-.13c.32-1.79-.2-2.64-1.13-2.79-1.14-.19-1.86,2-1.87,2.09-.65-.16-.86-1-1.25-1.11a1.64,1.64,0,0,0-1.46.31s-1.22-.28-1.61.33a5.17,5.17,0,0,1,.12,1.22,11.61,11.61,0,0,1-.67,1.62c-.66.71-2.1.64-3.33.55a3.18,3.18,0,0,0-2.57.42c.59-1.33.48-3.14.92-4.48a7.92,7.92,0,0,0-1.71.59s-2-.71-1.67.78c-.55,0-2.59-1.81-2.61-.61-2.61-1.26-.75,2.48-1.52,2.53,0-1-.37-2.37-1.72-1.68.23-.69-.08-.34.16-1.07s1.5-.87,1-2.21c-.1-.26-1.11-.9-1.37-1.15-.63-.64-1-2.1-1.48-2.32-.85-.43-1.82.83-2.5,1s-1.6-.13-2.41.07c1,1.37-.55,1.47-1.45,1.92-.6.3-.87-.33-1.45.66-.38.64.12,1.37-.3,1.77a8.8,8.8,0,0,1-3.44.1c-.5-.19-.06-.67-1-.86-.54-.1-.6,1.1-.6,1.1s-2.47,0-2.72,1.35c-.93-1.59,3-2.77,2-4.31-.47-.7-2.2.63-1.81-1.21-.84.17-1.73-.45-2.59-.54.12,1,.89,2,1,2.93-.69.32-.06.64-.49.91-.71.43-2.24-.28-3.29.09-.14-1.09-.85-2.12-2.4-1.58,1.47-2.1-1.17-2.76-1.47-.92l-.21-.13c-.1-1.11,1.29-1.24,2.11-1.21-.11-.75-.65-1.46-.72-2.19s1.29-1.43.31-2.17c-.6-.45-1.56.9-1.9,1.23-.19.19-.66,0-.84.2s-.09,1-.17,1.1-.67.07-.75.17c-.57.65.36,1.19-1,1.12,0-2.28-2.11-1.15-3.12-.34.27-.22-1.34,1.73-1.06,1.06-.07.17-.49.06-.41.58.19,1.17,1.35.29,2,.85.81.74.33,1.78.7,2.68.08.17.54.65.49.53.25.68.27,2,.55,3,.36,1.33,1.56,1.14,1.82,1.71.39.86,0,1.87-.14,2.75-.47,4.5.79.59,2.84,2.27.55.45.48.9.47,1.54,0,.22-.84.47-.69,1.11.1.41.45.06.58.46.32,1,1.51,1.27.31,2.72-.35.42-1.69.91-2.18,1.32-.49-1.15-2.21-1.08-2.37,0-.91-.67-.73-1.91-1.61-2.66s-1.49.16-1.71-1.17c-.87.49-1.58,2.57-2.05,2.52-.64-.06.05-1.47,0-2-.23-1.38-.83-1.06-1.31-1.85-.27-.46-.8.06-1.14-.63.38.77.65-2.49.67-2.26-.17-1.57-1.17-2.91-1.66-4.34,2.48-.57,2.12-2.12,2.87-3.8a1.76,1.76,0,0,1,1.67-1.18,3.57,3.57,0,0,0-.44-2.17c-.21-.41-.7,0-.95-.56a4.3,4.3,0,0,1-.19-2.46c.58-1.49.73,0,1.54-.87.48-.53-.21-1.64.34-2.16s2.69,0,3.48-.14a20.22,20.22,0,0,0,2.33-.83c1.46-1,1-1.25.38-2.59.45-.37,0-.81.29-1.49a3.22,3.22,0,0,1,.69.58c.07-2.17,1.86-3.92,2.39-5.91a7.45,7.45,0,0,1,1-2.39c1-1.42.63-.31,1.11-1.8A6.17,6.17,0,0,0,198,207c-.32-.46-.62-.94-.92-1.42a7.24,7.24,0,0,1-.14-1.54,7.78,7.78,0,0,0-2.44-2.41c-1.2-.81-1.92-1.34-3.46-1.2a7.81,7.81,0,0,1-2.83.4c-2.26-.48-2.84-1-5.13-.52,0-.58,1.25-1,1.67-1.11a3.8,3.8,0,0,1-2.11-.81c-.39-.23-.18-.88-.59-.95-.95-.18-2.07,1.8-2.15,2.47-.39,0-.23-1.1-.38-1.11-.36,0-1.32.17-1.85.21-1.3.08-2.26-.7-3.91-.47.84,2.85-4.27-.16-4.42,3-2.11-1.7,5.52-3.66,6.07-3.61-.18-2-1.55-1.21-2.71-1.92-.6-.36-1,.11-.55-1,.06-.16,1,0,1.17.08-.51-1.54,1.62-2.17-1-3.11,2.88-.86-2-2.08-2.25-2.27-1.15-.87-1.78-3.69-1.95-5.2a5.83,5.83,0,0,1,.34-2.65c0-.1.64-1.16.65-1.18-.19.27.68-1.08.65-.56.06-1.19-1.23-1.54-.4-2.84,1-1.52,1.86-.43,1.11-2.79a15.37,15.37,0,0,0-2.07-3.85,8,8,0,0,1-1.42-4.23c0-.15-.4-.24-.42-.4s.58-.18.56-.53c-.1-1.79-1.32-2.57-1.91-4a9.45,9.45,0,0,1-.83-3.76c-.08-2.23-1.06-4.32-1.11-6.49-.09-3.59,1.88-5.18,2.74-8.23.15-.53-.19-1.37.05-1.86.43-.9.47-.24.87-.79,0,0,.23,0,.26,0a15,15,0,0,1,.95-1.75c.29-.3,1,.11,1.27-.14s0-.49.18-.73c1.06-1.36,2.92-3.76,3.39-5.47a14.16,14.16,0,0,0,4.67,2.58c-1.19.57-.85,1.3-1.33,2.52s-2.29,2.7-2.43,3.87c-.09.82.56,1.08.75,1.78s-.19,1.39.22,1.89c.82,1,2.5.4,3.53.12a1.51,1.51,0,0,1-.38,1.5c.63.29,1.71,1.7,2.47,1.44s1-1.47,1.41-1.9c.13-.14,1.33-.85,1.41-.9a4.74,4.74,0,0,1,1.56-.73c1.2-.36.7-.83,2-.09,1.05.62,1.33,2.16,2.15,3a24.84,24.84,0,0,0,3.63,2.77c.51.35,2.24.95,2.4,1.41-2.15,1.2-3.58,1.06-1.59,3.44,1.1,1.32,1.54,2,3.19,2.11,3,.25,1.3-.23,2.48,1.84.28.49,1.33.69,2.08,1,0,0,2.5.91,2.64,1s.65,1.14.43,1c1.82,1,4.9.09,7.11.21,0,.61,0,1.22,0,1.82,1.59-.52,3.77,3.43,4.91.28C217.07,162.23,217.92,164.76,218.61,165.23Zm-53.58-2c-.54-.33-.19-.73-.42-1.3-1.05.37-.82-.31-1.87.2-1.37.68-.08,2.07-1.15,2.69.57.37-.91,1.19-1.19,1.25,1,1.13,2.17-.13,3.4.78.42.31.43,1.53.95,1.58,1.13.12-.21-.51.32-.86a14.52,14.52,0,0,1,1.4-.5c0-.4-.48-.76-.54-1.29s.43-.56.23-1.23C166.05,164.19,165.31,163.76,165,163.22Z"/>
<path class="cls-3" d="M280.83,189.29c.65-.63,2.19-.39,3-.69-.41.16,1.89-1.27,1-1.15.75-.09.89.41,1.5.58,1.8.5,2,1.93,4,2.4.82.2,1.7-.08,2.51.1,1.47.31,1.17-.1,1.76,1.14.76,1.59-1.06,4.15.06,5.3s3.89,0,5.41.94c.81.49,1.28,1.53,1.93,1.79.92.37,1.32-.19,2.2.51.47.38.12,1.22.94,1.69a4.39,4.39,0,0,0,2.16-.05c1.34-.46,2-1.94,3.48-2.37,3.91-1.15.93,2.67,2.11,4.33-.19-.27,2.07.94,2,.93,1.07.14.36.23,1.43-.23.74-.31,1.31-1.34,2.17-1.37s1.59.77,2.46,1,1.48-.39,2.1-.34a9.34,9.34,0,0,1,1.88.67,15.87,15.87,0,0,1,2.59.91c.71.34,1.86,1.58,2.48,1.75,1.1.3,2.78-.73,3.94-1.61a17.57,17.57,0,0,1,2.2-1.85c.38.72.3,2.92.74,3.35a12.78,12.78,0,0,1,1.87.59c2.9,1,1.31,0,3.28-1,.75-.37,2,.5,2.77.46a8.22,8.22,0,0,0,1.73-.53c.84-.22,3.22-.22,3.1-1.32.76.28,1.59,2.13,2.31,2.11,1.29,0,.65-3,1.43-3.79.67,2.32,1.72-.81,1.74-1.57,1.73.89.86,1.61,1.11,3.43.34,2.52,1,2.14-.69,3.88a33.7,33.7,0,0,1-3,2.95c-.76.63-.6,1.29-2,.87,0,2.4-1.69,4.28,1,5.81.34.19,1.15.23,1.6.55,1.24.88,1.25,2.83,1.46,4.12-.59-.27-1-.77-1.75-.62-1.27.27-.54.78-1.28,1.29,0,.19,0,.38-.05.58-.31,0-.61,0-.92,0,.05-.06-.74,0-.77,0-.39.7.55,2,.85,2.6.05.11.88,1.54.88,1.67,0,.57-1.27,1-1.3,1.81-1.31-.72-3.58-3.15-5.33-2,0,0-.69,2.38-.69,2.45-.62,0-2.36-.26-2.86.15s-.34,1.64-.7,2.12c-.52.71-1.18.54-1.7,1.11-.94,1.05-.3,1.79-.49,3-.23,1.47-.82,1-1.22,2-.28.72.12,1.67-.17,2.4-.57,1.47-1.78,1-1.86,2.87-.64.17-1.73-1.33-2.57-1.41a1.7,1.7,0,0,1-1.55,1.8c-.64-4.79-3.56,3-3.51,2.91-.45.45-1.34.19-1.8-.2-.62-.53-.12-.35-.55-1.22-.3-.61.24-1.5-.53-2.05-.61-.44-1.64.33-2.24.34.08-1.34-.18-3.1-1.46-3.79-1-.51-1-.07-2.26,0-2.22.11-3.57-2.24-4.76,1.36a7.3,7.3,0,0,1-1.18,2.16c-.09.11-1,.56-1.15.65-.52.33-.28.67-1,1-1.19.56-2.75.17-4,.9a1.24,1.24,0,0,1-.06.76,2,2,0,0,1-1.21.3c-.2.12-1.8.94-1.81.94-2.15.53-1.55-1.25-3-2.2-.91-.61-1.47-.09-2.25.26a5.08,5.08,0,0,0-.44,1.2,1.25,1.25,0,0,1-1.35.43c-.15.12-.68-.12-.82,0s.18,1.09-.08,1.27a2.56,2.56,0,0,1-3-.2c-.81-.85-.16-1.6-.55-2.46-.92-2-1.64-.47-2.92-.57a1,1,0,0,1-1,.38c-.4,0-.61-.19-.62-.73-.69-.35-1.22-2.34-2.63-1.81a.92.92,0,0,0-.33.27c-.18.06.06,1.07-.22,1.3-.58.49-2.15.14-2.81.12-2.09-.07-4.24.19-6.08-.93,3.68-1.67-1-5-1.68-6.52-1.15-2.37-1.42-6.21.89-7.89.92-.67,2.62-1.31,3.69-1.94,1.62-1,2.31-1,3.46-2.6a6.42,6.42,0,0,1,1.77-1.79c.64-.42,1.3-.49,1.85-1,.29-.29.18-1.16.43-1.33,1.42-.95,1.2.56,1.51.64,1.23.28,1.33-.66,2.21-.88s7.93,1,4.86-2.57c-.56-.65-1.75-.75-2.51-1.1a30.94,30.94,0,0,1-2.76-1.54,12.7,12.7,0,0,1-4.85-4.72c1.63-.17,4-1.55,2.52-3.44-.73-.92-3.77-.69-4.07-1.69s.56-.67,1-1.07c-.08.06,1.31-.9,1.17-.83,1.13-.5,5.86.17,6-1.42s-1.41-.67-1.93-1.17c-.94-.9-.31-1.64-.91-2.63-.74-1.2-2.51.14-3.54-1.18-.65-.83.23-2.2-.3-3.08-.26-.45-1.08-.65-1.2-.88-.05-.07-.16-.59-.26-.75-.5-.83-.6-3.22-1.41-3.37C279.93,191.06,280.27,189.84,280.83,189.29Z"/>
<path class="cls-3" d="M274.37,251.69c.16-.7-.18-1.17-.11-1.71s.48-1.19.51-1.54c.06-.86-.41-1.43-.32-2.35,2.15.69,10.43,3.52,10.72-.33,1.46.37,1,1.17,1.83,1.85,1.66,1.37,1.82-.56,3.31-.3s.57,1,1,2.05a3,3,0,0,0,2.66,2.12c3.09.59,1.24-.09,2.33-1.68a13.71,13.71,0,0,0,2.13-.81c.62-.5,0-1.47,1.3-1.29.73.1.65,1.24,1.13,1.74a3.11,3.11,0,0,0,2.91.77c.09,0,1.34-.92,1.6-1,1.31-.59,1.73-1.19,3-1.75.85-.39,2.27.21,3-.26s.47-1.14.91-1.48,1.12-.07,1.58-.54.12-1.09.27-1.5c.61-1.67.36-2.27,2.22-2.29.28,0,.44.21.49.6a2.28,2.28,0,0,0,1.83.13c2.28.13.55-.81,2,.35,1.19.94.52,1.15,1.06,2.21.29.57-.27.84.1,1.12,2,1.52,1.89-2,2.63,1,.31,1.29.53,2.24,1.81,2.34,2,.14,1.59-.65,2.27-2.51.08-.2,1.06-1.59,1.08-1.6.77-.21.42.68.73.66.58,0,2.28.49,2.84-1.22.62.44,1.14,1.44,2,1.14,1.46-.49-.78-.13.55-1.23.59-.5,1.26-.48,1.8-1.4s.23-2.38.51-3.15.83-.83,1-1.89c.12-.6-.48-1.63-.16-2.22.45-.81,1.61-.79,2.22-1.74.29-.44.25-1.68.65-1.95.63-.45,2.05.4,2.71,0s.83-1.73.87-2.54c1.57-.12,4.28,1.41,5.46,2.4,1.77,1.49,1.66,3.49,1.24,5.6-.06.3-.66,0-.68.45-.06,1.53.82.89,1.32,1.9,1.08,2.15-.75,1.87-2.13,2a19.87,19.87,0,0,1,.4,2.32c.16,1.28.37,2.06-.78,3.35s-1.79,1.11-.81,2.33c-2.29.11-3.14,1.63-3.18,3.62-.86,0-2.28-2.37-3.56-1.11-.89.88.5,1,.52,1.81,0,.52-.5,1.14-.54,1.75-2.4-.21-1.34-.6-1.43,1.06-1.05,0-1.84-.64-2.81-.77a2,2,0,0,0-1.74.3,12.54,12.54,0,0,1-1.31,1.06c-.63,1.09-.09,1.39-1.19,2.07-.77.47-2.11.42-3,.91a15,15,0,0,0-2.11,1.51c-1.11.92-2.05,4.34-4.07,2.12-.57-.63,0-1.33-.62-1.68-2.22-1.26-2.57.43-2.34,1.74-1.24,0-2.47,0-3.71.09,1.82.77,1,2.09.67,3.05-.25.7-.94,1.91-.54,2.72.15.29,1,0,1.33.1,0,1.6,1.53.57,2.48,1,.49.21.48.87.8,1,.05,0,.66,0,.68,0A7.6,7.6,0,0,0,328,274.3c.82,0,2.38-.49,3.1.05-2.13.86-1.49,2.56-.56,3.85s3,1.6,2.3,3.11a2.8,2.8,0,0,1,3.13,1.91c-1.9.92-.17,1,.36,1.76.36.54.38,1.8,1.07,2a2.44,2.44,0,0,1-1.7.89c-1.16-.05-.3-.48-1.22-1.22s-1.56-1.68-2.86-1.29c-.68.2-.67,1.1-1.25,1.19-1-2.56-2.33-2.94-4.64-3.52a12.57,12.57,0,0,0-5.11-.59c.43,1,1.43,2.21,1.53,3.3s-.45,1.2-.43,2.14c0,.67.79,1.57.64,2.21.17-.76-1.55,1.5-1.28,1.22-.79.83.07,1.5-1.77,1,.57-.8.46-1.62-.49-2-.48-.19-.34.46-1,.43-1.48-.08-2.38-.78-3.8-1.17-2.48-.68-2.83.2-4.68,1.41s-2.62.09-4.55-.31a3.8,3.8,0,0,0,1.17-1.29c.24-.54.39-6.15,0-6.39-1.07-.65-3.19,1.05-4.23,1.36-2,.62-4.25-.1-6.18.6-2.12.76-2.7,1.69-5.06.82a4.76,4.76,0,0,1-1.76-.79c.1.09-2-2.65-1.93-2.23-.17-2.11,2.65-2.28,3.56-3.47.77-1,.7-3.29,1-4.54-2.17-.12-3.64,0-4.73-2.23a24,24,0,0,1-.7-2.94c-.39-1.26-1.24-.89-1-2.65.21-2.07,1-3.57-1.37-4.3-1.45-.45-2.16.35-2.1-1.93-1,.3-.88-.5-1.34-1.13a13.68,13.68,0,0,0-2.38-2.31c-1.22-1.11-.7-2.23-1.62-3.31-.55-.65-2.34-.46-2.64-.87C272.74,252.05,274.21,252.38,274.37,251.69Z"/>
<path class="cls-4" d="M113.51,295.05c0-.24.13-.36.36-.35-1.81-.6-1-2.08-3.25-1.17-.76.31-.23,1-1.49,1.08-.7.05-1.71-.64-2.46-.72-1.2-.12-2.29,1.25-2.78-1-.3-1.33.54-1.8.35-3-.14-.82-1.64-2.07-1.62-2.58.07-1.8,4.11-.69,4.56-1.18,2.11-2.32-3.92-2.29-3.85-3.62,1.29-.05,1.86.28,3-.57.81-.6.71-1,1.49-1.4s1.28-.16,2-.69a6.52,6.52,0,0,0,1.64-2.16c.21-.54.55-1.65.19-2.21-.7-1.06-.8-.18-1.49-.67-1-.71-1.06-.25-1.29-1.76a9,9,0,0,1,.09-2.68c1.25-2,2,1,3.15,1.47a10.25,10.25,0,0,1,1.82-.13c.15,0,.16-.16.28-.2a30,30,0,0,0,3.4-1.55c2.57-1.42.86-2.58-1.34-3.36,1.14-1.65-.59-1.55,1.68-2.54,1.14-.5,2.51-.63,3.56-1.34,2.23-1.52,1.43-3.53,1.6-5.81.11-1.43,1-1.93,1.32-3.16s-.56-2.3-.78-3.46c-.43-2.24-.29-1.72-2.84-1.75a5.12,5.12,0,0,0,1.14-3c-.07-.48-.29-.64-1-1.39-.93-1-.84.78-.84-1.09,0-1.38.3-.29.74-1.11s.7,0,.86-1.31c0-.41-.84-1.36-.54-1.72a.61.61,0,0,1,.38,0c0,.44,2.54,2.43,3.11,1.87,1.07-1.05-3-4.13-2.35-5.74,1.25.93,1.19,2.9,3.44,2.16,1.77-.58.86-1.63,1.64-2.65.94-1.22,2.82-1.24,3,.26.13,1.11-.45.78-.86,1.58-.24.49,0,1.1-.22,1.52-.37.77-2,.81-.87,2.16.33.41,1.1.3,1.52.43,1.19.37,3.24.29,4.29.53.79.18-.18,1.09,1.68.34,1.13-.46,1.66-1.24,3.05-1.19,0,.37-.25,2.66,0,3s1.45.08,1.67.36a4.11,4.11,0,0,1-.14,2c-.47.5-1.09-.62-1.42-.5a2.12,2.12,0,0,0-1.41,1.9c0,1,.77.95.85,1.34.27,1.22-1.23,4.14,1,4.33-1.63,1.13-2.57,1-4.32.86s-2.25,0-2.15,2.24c0,.9,0,1.17.42,1.57.08.09,1.53.57,1.88.79.5.32.87.86,1.4,1.18.71-1.68-.11-1.94,1.7-2.29.69-.13,1.6.24,2.26.07,1.62-.42,1.27-1.26.87-2.8,1.19-.4,1.5-.29,2.3-1.35,1.2-1.59.06-2.59,2.23-2.83,1.5-.17,5.15.9,6.56,1.47-.41-.93-.1-1.5.95-1.26,0,.4-.1,1.08.2,1.23a2.1,2.1,0,0,1,.94.2c.74-.11,1.08.16,1,.8,1.3.67.91.58,1.73.23a2.49,2.49,0,0,0,1.71-2.18s-.8-1.6-.86-1.87c-.26-1.25,0-2.57-.27-3.83,1.08.05,1.57,1.49,2.81,1,1-.36,1.34-1.91,1.29-2.85-.19-3.27-3.41-1.5-4.39-3.8,4.28,0-.09-3,1-4.39.39-.49,2.74,0,3.43-.1a8.26,8.26,0,0,0,3.26-1.18,2.65,2.65,0,0,1,0,1c.74-.13,2.32-.11,2.64-.56.57-.78.05-3.93,0-4.76-1.64.34-.28-1.42-.89-2-1.16-1-2.57.93-2.85,1.88-2-.86-4.15.14-6.4-.12-3-.34-3.75-1-4.57-3.71-.29-1-1.38-2.36-1.26-3.42,0,.06.88-1.18.91-1.23.86-1.2-.25-.54,1.38-1.39,1.34-.69,1.89-.6,2.88-1.8a17.05,17.05,0,0,1,2.09-2.77c1.24-1,2.71-.88,3.94-1.77,1.41-1,1.72-1.68,3.47-2.51a76.78,76.78,0,0,0,7.46-4c1.58-1,.61,0,1.22-.53.26-.22.08-.92.46-1.17a5.65,5.65,0,0,1,3.42-.71c1,0,2.21-.12,2.24-.46.47-5.87,9.59,0,9.94-2.49a3.65,3.65,0,0,1,2.2,1c.25.18,1.71,1.06,1.92,1.28.61.65.1.92.4,1.78.35,1,1.14,1.84,1.36,2.87.47,2.13-.51,2.86-1.32,4.43-.52,1-.77,2.51-1.42,3.73-.22.41-.58.74-.77,1.11-.27.69-.56,1.38-.86,2.06-.5-.1-.8.13-.91.67.19-.46-.33,1.2-.34,1,0,.51.79,1.35.74,1.69-.13.78-2.58,1.37-3.55,1.56-2.2.44-3.44-.59-3.42,2.32-2.09,0-2.31,2.57-1.43,4.36.28.56,1,.4,1.1,1,.1.81-.23.28-.55,1s-.42.46-.94.52c-.06,1.84-.57,4.17-2.91,3.95-.28,1.94,1.88,3.83,1.79,5.89-.07,1.5-1.5.79,0,2.65.21.26.93,0,1.24.38.57.64.24,1.13.29,1.86s-.31,1.29.16,1.66c2,1.57,1.79-1.38,2.37-2,.49.72,1.33.22,1.79.65s.24.83.61,1.23c.65.71.72,1.68,2,1.66a2.15,2.15,0,0,1-.05-.91c.91-.14,1.18.41,1,1.12a14.16,14.16,0,0,0,3.38-1.84c.58-.56,0-1.66,1.16-2.16a5.87,5.87,0,0,0-1.94-1.9c.06-.2.52,0,.66,0,.14-1,.2-2.22-.68-2.93-.7-.56-1.45.09-2.67.1,0-1.7.79-3.42,0-5-.18-.35-1,0-1.28-.44-.42-.69-.23-1.25-.32-2a7.46,7.46,0,0,0-.4-2.2l-.67-.22c0-.4-.08-.81-.1-1.22-.49-1.06-.39-2-1.85-2.13.7-.43.64-2.09,1.84-2s.1.85.7,1.18c1.76,1,1.83-1.45,3.2-1.08-.27-1.08.73-2.1,1.69-2.48-.07,1.32-.6,1.32,0,2.95-1.32.12-2.25.88-2,2.28.06.28.93.42,1.11.67.68.91-.6,1.14.73,1.24.67,0,.87-1.13,1.75-1a4.68,4.68,0,0,1,.43,2,40.87,40.87,0,0,0,4.65-.2c1-.78-.08-2.63-.27-3.62,1.18.67,1.43,1.51,2.91,1.5-.11.82-4.45,3.95-.68,4.13.35-1.77,1.09-1.31,2.46-1.37,0-.17,0-1.44.34-1,.21.25.1.92.43,1a8.94,8.94,0,0,0,2.48,0c1,0,1.87.11,2.31-.46s-.48-1.59.24-2.18c.24-.2.24.36.6.13.83-.53,2.82-.35,2.5-2.07a5.24,5.24,0,0,1,1.83.37c0-.87.85-1.1,1.66-1.25.12,1.55.77,1.23,1.55,2.25,1.3,1.71.59.9-.06,2.28a8.57,8.57,0,0,0-.24,1.57c-.37.67-1.38.59-1.4,1.65.76.09,1.14-.48,1.87-.74.19-.07.32-1.22,1.38-.46.39.28-.34,1.5.15,1.78,1.57.92,1.51-1.75,1.28-2.47.62-.28.7.42.88.83a7.43,7.43,0,0,1,.55-1.29,9.61,9.61,0,0,0,1.21,1.09c.41.15.81-.17,1.3-.14.08-.65.34-.48,0-1,1-.19,1.3.59,1.15,1.58.13-.33.35-.61.47-.94-.12,1.31-.06,2.4-.88,3.52,1,.39,2.41-.37,3.26-.43,1.54-.12,3.2.06,4.78-.05-.92-1.48.86-2.49.1-3.95.88-.39,1.11.56,1.19.86.17-.56.49-1.12,1.17-1.09a1.86,1.86,0,0,0,2.24,1.36c-.08-.73.42-3.27,1.59-2,.66.71-.63,2.24-.07,2.75.35.32,1.71-.14,2.21,0,.09,0,.6,1.06.94,1.22.72.32,1.54,0,2.28.06-.09,3,.63,3.21,3.52,3.09,0,.71-.14.85.35,1,.76.25,1.33-.25,1.76.33.21.29-.12,1.07,0,1.41.32.76,1.59-.2,1.19,1.49,1.81-.24,2.15,1.81,2.06-1.09,1.47,0,2.87-.3,4.21-.38s.85.05,1.56.62c1.2,1,1.53,2.53-.57,1.34a18.38,18.38,0,0,0,0,2.57,1.44,1.44,0,0,1,.54-.07,5.29,5.29,0,0,0,.4,1.62c.57-.07.77.17.6.71-.07.26-.15.52-.22.78a5.52,5.52,0,0,1-.15.68c-.25.85-1.62,1.92-1.52,2.54.31,1.89,2.66,2.06.75,3.84a1.5,1.5,0,0,0-1.33.52c-.08.32-.16.64-.23,1-.11.11-.46.62-.6.76.11-.11-1.19.19-1.19.19-.28.12-.32,1-.37,1.28-.12-1.22-4.76-1.46-5.41-1.61a18.54,18.54,0,0,0-5.86-.38c-.69,0-1.23.35-1.95.1-.32-.11-.33-1.16-.94-1.29-.89-.2-2.73.14-2.49,1.47.18,1,1.79.76,1.92,1.59.17,1-1.65,1.56-2,2.39a2.11,2.11,0,0,0,.85,2.59c1.13.56,1.75-.44,3-.19.23,0,1.84.68,1.78.65.53.28.55.64,1.07,1.17.27.28,1.25.54,1.7,1a4.33,4.33,0,0,1,1.6,3.21c-.05,2.5-1.84,2.21-3.84,2.3.28,1-.71,1.23-1.08,2-.24.54-.09,1.24-.37,1.74-.43.8-1.19,1.12-1.59,2-.23.46.12,1-.23,1.49s-.87.34-1.17.65a16.21,16.21,0,0,1-1.45,1.62,25.54,25.54,0,0,1-2.76,1.47c-.4.08-1.2-.35-1.7-.32s-.81.42-1.21.49c-3.63.64-2.76-.07-2.92,3.81a3.91,3.91,0,0,1-1.33-.22c-.11.5-.42.92-.53,1.41-.27,1.12.15,1.48.11,2.56-.69,0-1.8-.82-2.31-.29-.34.36.19,1.31,0,1.77-.14.28-.74.46-.77.54-.36,1-.61.5-.59,1.89,0,.73.66,1.44.52,2.19A1.66,1.66,0,0,1,226,300.2c0,1.53.65,3.13.28,4.68s-1.32,1.58-1.72,2.48c-.37-.7-.81-.08-1.57-.07-1.32,0-1.32.32-2.43-.83s-1.32-2.18-2.78-2.94a11.26,11.26,0,0,0-1.52-.67c-1.78,0-2.74,1.63-5,1.45a15.73,15.73,0,0,1-2.81-.85,9.55,9.55,0,0,0-3.33,0c-2.26.13-1.87-.76-4-1.53a1.55,1.55,0,0,1-1.24-.27l-.55-.92c-1.94-.46-.87.09-2.09,1.12-1,.84-1.13-.19-1.2.92-.55-.07-2.85-.94-3.36-.53s.41.57-.13,1.55-.16.66-1.61,1a4.5,4.5,0,0,1-3.46-.37c-.52-.24-1-1-1.63-1.08,0,0-1.8.57-1.37.63-1.41-.2.14-1.59-.68-2-1-.51-1.41.9-2.11,1.09-1,.27-1.62-1.05-2.91-.27a2.24,2.24,0,0,0-.9,1.28c-.07.6-.44.79-1.1.59a10.39,10.39,0,0,1-6.43,1c-.48-.1-.85.11-1.25-.12s-.35-.79-.95-.82a2.17,2.17,0,0,1,1.67-1.3c-1.5-1.71-1.66-4.56-4.24-4.91-1.54-.21-2,.58-3,1.21s-.38.72-1.86.57c-1.77-.18-4.05-.23-5.76.86-.54.35-.32,1.39-1.47,1.34.87,2.17-2.44,3.29-3.35,5.08,1.34.2,1.48.59.43,1.31-.78.53-2.17-.1-2.75.36-.32.26.27,1.25-.05,1.55a10.39,10.39,0,0,1-2.73,0c-2-.09-1.3.23-1.7-1.33-.35-1.38,0-2.74-1.22-3.67a7.94,7.94,0,0,0-5.42-1.31c-2.66.19-5.1.2-7.68.17s-3.34-.39-4.54-2.47c-1.41-2.45-2.77-2.81-5.66-2.57-1.44.11-2.32.79-3.5-.4s-.85-2.86-1.11-4.31Z"/>
<path class="cls-3" d="M219.21,354.25c-.73-1.49-1-1.61-.47-3.24a7.75,7.75,0,0,1,1-2.44c.74-.86,2.35-1.65,3.26-2.6,1.25.8,1.52,2,3.37,1.85a2.78,2.78,0,0,0,2-.81c.66-.53.83-1.42,1.62-1.95a2.88,2.88,0,0,1-1-.33c.11-1.05,1.24-.94.4-2.19-.63-.94-1.79-.47-2.62-.8.95.38-1.82-1.88-1.15-.85-1.08-1.64-1.22-5.83-4.58-3.42,0-.3.57-.89.68-1.21s-.35-.77-.42-1.17c3.3.07,2-5.55-.74-4.42-.2-1.93.92-1.52,2.08-2.35,1.38-1,1.46-1.5,1.58-3.23.18-2.56,1-3.65-1.72-2.91.34-2.61,2.35-4.22.2-6.53-.55-.59-1-.22-1.38-1.09-.32-.71-.1-2.08-.3-2.91.42,0,.23.76.41.67.55-.3,1.32-.52,1.95-.87,1.56-.87,3.12-3.26.29-3.63,3.63-.68,3.75-3.56,3.06-6.86,4-.19.7-3.49,1.59-5,1-1.71,1.32.09,1.4-2.92,2.67.38,2.09.84,2.19-1.58,0-.14-.31-.28-.16-.69.62-1.79.93.2,1.72-1.05.4-.63,0,.31.35-1.25.59-2.36-.84-1.94,1.8-2.42,1-.18,1.9-.31,2.8-.43a5.64,5.64,0,0,0,3.58-1.39c.64-.53.87-1.12,1.5-1.65s1.22-.4,1.63-1.1.21-1.55.49-2.13.88-.69,1.14-1.15c.37-.66.3-1.53.68-2.18.89-1.52,1.23-.85,2.72-1.33,3.66-1.17,1.57-5.22-.21-7.05-.94-1-2.33-2.85-3.3-1.66-.53-.4-.92-.93-1.65-1-.51-.07-1.71.66-1.9.61-1.27-.33-1.12-1.33-.68-2.21.58-1.16,2.4-1.43,1.5-3.07-.21-.38-2.82-1.07-1.09-1.64,1.58-.53.83.9,1.4,1.17,1.1.54,2.19,0,3.28-.1s4.93-.51,4.77,1c.86,0,2.27.06,2.76.09s2.05.5,2.44.55.1.94.95.58c.68-.29.16-1,.54-1.31s1,0,1.43-.36c.62-.54.29-1.44.73-1.88s1-.14,1.53-.36c1.11-.52.66-1.06,2.2-.42.66.28.6.87,1.29,1.16a7.51,7.51,0,0,0,3.2.17c2.85-.4,1.51-1.72,2.54-3.4a2.17,2.17,0,0,1,2.13-1,3.69,3.69,0,0,0-.11-.56c2.63.23,1.41,1.85,2.62,3.42.83,1.08,2.16,1.32,2.95,2.51.29.44.82,1.26,1,1.64a6.53,6.53,0,0,0,.91,1.72c1,.92,2.15-.38,3,.66s-.55,3.92,0,5.45c.15.45.81.45,1.13,1.54A18,18,0,0,0,286,273a4.65,4.65,0,0,0,4.56,2.48c-.23.75-.17,2-.46,2.62-.52,1.08-.94,1-2,1.83-1.43,1.14-1.53,3.35-3.57,3a1.75,1.75,0,0,1,1.1,2.31c-.47,1.27-3.1,2-4.26,2.81a12.27,12.27,0,0,0-2.7,1.9c-.65.82-.36,1.13-.79,1.83s-1.05.5-1.18,1.43.84,1.73,1.34,2.49a4.65,4.65,0,0,0-2.37,2.79c-.18.49-.09,1.12-.33,1.51-.51.83-1.22,1-1.57,2.18-.59,2,.47,2.16.71,3.78-1.31,0-2.66-.32-3.36,1-.42.8.12,2.95-.92,3.42-.58.27-2.93-.72-3.74-.74a41.48,41.48,0,0,0-5.1-.14c-1.69.2-.89-.23-1.41.36s-.76,3.65-1.26,4.66c-1.69,3.45-1-.2-3.05.11-1.56.23-.66,5.94-.54,7.3.19,2.15,1.77,2.38,1.56,4.78-.3,3.46-2.18,6.26,2.27,6.88,1.6.22,2.54-.6,2.64,1.21.05.81-.24,2-1.29,2.08-.06-1.54.27-1.59-.7-2.18s-3.86-.36-3.92,1.15c-.79-.05-.16-2.39-.34-2.73-.59-1.14-2.93-1.11-4.05-1.15-1.88-.07-3.7-1.81-4.73-.12-.61,1-1,3.49-.15,4.44.24.27,1.16-.19,1.45,0-.41-.21,1.51,1.28,1.3,1,1.43,1.72-.43,3.62-.24,6,2.5-.8,2.62,2.64,2.71,4.1s2.38,7.81-.48,6.86c.4,4-2.49,3.93-5.37,5,.48.22,1.48.64,1.69,1.14.71,1.74-.54.63-1.21,1.31-1.31,1.3-1.53,3.23-3.16,4-.94.47-3,.9-3.69,2s-.12,2.72-.71,3.9a7.72,7.72,0,0,1-2.13,2.38c-.76.49-1,.16-1.78.57-1.58.8-2.58,3.2-3.23,1-.23-.77.14-1.71-.1-2.52s-.66-1.38-.84-2c-.39-1.55.65-1.53-1.3-1.17-.14-.74.14-1.15-.44-1.29-1-.24-1.61,1-2.37.76-.07-.8.39-1.37.24-2.33a7.62,7.62,0,0,0-.45-1.09,13,13,0,0,0-2.32-4.07,10.1,10.1,0,0,0-1.83-1.7c-1.71-.41-.64.42-1.58.38-1.59-.07-1.47-.79-2.7-1.6.21-.1.43-.29.65-.37l-.34-.32C216.45,356.57,220.51,356.94,219.21,354.25Z"/>
<path class="cls-2" d="M79.06,324.57c.12-.29,1.21-.39,1.47-.61s0-1.26.33-1.49c.57-.4,1.27.21,1.89-.4.79-.79.75-1.67-.49-1.85.55-1.14.21-2.35.55-3.49-.3-.86-.06-1.3.71-1.33a.67.67,0,0,0,.72-.85c-1.52-.09-1.6-.45-2.28-1.75,1.7-.49,1.54-.11,2.17-1.52a17.82,17.82,0,0,0-2.19.08c0-.53.18-1.4-.45-1.71.48-.35,1.62-.15,1.47-.83-.77,0-1.54.07-2.31.08a1.47,1.47,0,0,1,1.14-.94c-.06-.59-1.56-.33-1.84-.35a5.39,5.39,0,0,1,.27-1.57c0-.21-.24-.79-.2-1.17s.43-2.37.4-2.29c.3-.72,2.64-3.74,3.37-3.75-1.06-.43-1.39.78-2.3,1-1.68.4-1.12-.06-2.13-.95a15.34,15.34,0,0,1,3.25-.15c-.08-1.09-2.72-.82-3.57-1-.34-1.09.21-3.84,1-4.4.42-.28,1.09.08,1.56,0a15.27,15.27,0,0,0,2.61-1c-1.58-.9-3.32,1-4.48.53-1.77-.66.74-2.49-.66-3.6.89-.47.27-2.11,1.19-2.65s1.35.56,2.23,1c2.34,1.19,2.54-.45,4.35-1.38-2.33,0-3.37.87-5.67-.25-.77-.38-1.47-1-2.39-.89A19.29,19.29,0,0,0,77,286.45c.34,0,2.24-.36,1.85.47,0,0-1.42.6-1.62.61-.63,0-1.21-.92-1.86-.69a8.5,8.5,0,0,1-1,1.83,2.37,2.37,0,0,0,1.48.25,5.77,5.77,0,0,0-1.84,4.23c.08,1,.67,1.78.56,2.91a28.67,28.67,0,0,1-.49,3.8c-.38,1.62-1.58,2.47-2.56,3.76-.35.48-.91,1.17-1.11,1.47,0,.38,0,.76,0,1.13a1.32,1.32,0,0,0-1,.38,11.1,11.1,0,0,1-3.66,1.74,15,15,0,0,1-4.17,1.06c-.45.06-2.66.31-2,1.3.19-.64,1-.66,1.5-.7.07,1-1.45.6-2,.8-.72.28-1.21,1-1.77,1.27-1.51.62-3.62.72-5.21,1.2-.68.21-1.5,1-2.18,1.14a17.52,17.52,0,0,0-2.29-.55c-.44-.09-.85-.65-1.34-.64s-.93.53-1.62.44c-2.79-.38-18.27-12.32-16.14-14.41-1.33.15-2.33-2.16-3.08-3-1-1.05-2.09-2-3.11-2.94a45.15,45.15,0,0,1-5.76-6.8c-.73-1.06-3.4-4.52-3.31-5.91s1.61-2.89,2.86-2.8c0,.68-2.05.61-1.15,1.62.28.33,3-.11,3.27-.31-.32.68-2.06,2.7-.14,2.55.14.72-.68.54-.78,1.14,1.06-.34,1.93-1.2,3.13-1.3.4,0,1.27,0,1.49,0s.5.62,1,.49c.24-.54.14-.84-.3-.89,1.14-.06,2.94-.86,3.15.54.95-.06,1.83-1.84,3.09-1.95s.66,1.27,2.13.42c1-.55,2.22-2.23.41-2.2,2-1.29,1.84-.29,3.46,0-.25,0,1.35-.34,1.3-.32.88.4,1.26.18,1.13-.65a1,1,0,0,1,.43-1c1-1.58,2.76-2.3,3.45-3.95a28.61,28.61,0,0,1,2.7-4.76c-1.51,1.28-1.4-.71-2-.82-1.27-.23-1.6.63-2.46,1.14a.78.78,0,0,1-.67,1,.52.52,0,0,1-.43-.44c-.2.08-1.7-1-1.56.48,3.17.07-1.17,1.16-1.49,1.26-.54.17-.7.89-1.24,1.11-.94.38-2,0-2.92.23-1.7.46-2.47,1.06-4.66.81-.82-.09-2.35.17-2.78.13-2.58-.26-.14-.45-1.73-.93-.58-.17-1.21,0-1.77-.18-1.55-.46-2.5-1.74-3.79-2.72-2.8-2.14-5.72-3.38-7.82-6.1.39,0,1.48-1.59,1.49-1.76-.77-.25-1.41.89-2,1.14-.23-.36.75-1.41.69-2.07-.69,0-.65,1-1.36,1-.18-.67.85-1.13.73-1.62-.16-.66-1.91-1-2.36-1,.15-.18,1.16-.56.79-1-.52-.61-1.2-.48-1.41-.94a4,4,0,0,1,.28-2.86,21.39,21.39,0,0,1,2.73-1.14c1.79-1,1.48-.93,2.49-2.55-.63-.18-1.49,1.08-2,1.35-.9.47-1.58.09-2.4.42-1.27.51-1,.53-1.83,1.5s-.13,1-1.49,1.39c-4.52,1.25-2.16-3.52-1.42-5.27C2.72,246.11,5.06,247,7.74,247c.8,0,4,.51,4.57,0s.45-2.07.58-2.67c.07-.34.82-4.64.94-4.59.9.4.13,2.83,1.29,2.81.17-.53.59-2.07,1.4-2,.62,1.92.6.79,2,.92.89.09,1.65.65,2.73.64.68,0,1.91,0,2.48-.1.88-.09,1-.29,2-.34a12.32,12.32,0,0,1,3.2.21c1,.43,1.18,1.45,2,2.13a6.45,6.45,0,0,0,5.48.92c1.06-.4,1.83-1.84,2.9-2.31.86-.38,1.93-.36,2.83-.68a9.53,9.53,0,0,1,3.6-1c2.59-.05,1.59.14,2,2.19.29,1.66,1.24,1.81,2.9,1.9a5.66,5.66,0,0,0,2.14-.1c.24-.13.2-1.19.62-1.48,1.1-.74,4.27-.13,4.56-2.12-1.75-.1-2.14.5-2.53-1-.15-.59.89-2-.13-2.2.14-1.12,1.51-1.24,2.08-1,.11.05.46,1.15.77,1.33a2.23,2.23,0,0,0,1.55,0c.24-.05.17-.3.24-.32l0-.69,1-.12,1.21-.12a29.09,29.09,0,0,1,3.62.61c1.44.4.89,1,2,1.73,1.81,1.26.84-.58,1.74-1.14.73,2,2.43-.86,3.22-.95.13,2.91,2.35,1.27,3.78,2.34-.09-.07,1.49,2.18,1.54,2.26a3.29,3.29,0,0,1,.34,1.7c1-.25,1.41-1,1.94-1.76-.05,0,2.14,1.65,2.1,1.59.23.41-.19,1.45.18,1.66.69.41,2.1-.08,3,.09,1.59.31,1,1.71,2.63-.41,1-1.21-.25-1.62,2.13-1.3-.12,1.56-.76,2.29.9,2.34-2,1-2.37,2.66-1.33,4.53a2,2,0,0,0,1.29.64,1.41,1.41,0,0,0,0,1c.88.81.68.79,1.86.38.67-.23.4-1.18,1.22-.94s.79,1.32.73,1.9c-.1.95-1.46,1.56-1.84,2.35-.86,1.77-.06,1.38.75,2.43a6.35,6.35,0,0,1,1,1.21c.25.48,0,1.48.71,1.79.29.13,1.09-.79,1.46-.54.64.42.21.76.28,1.47.35,3.44,1,1.77,3.55,3,.69.33,1,1.26,1.83,1.53,1.54.51,2-.36,2.89,1.23.06.11-.4.87-.32,1,.65,1.38.77.45,1.83,1,1.27.59.72-.56,1.23,1.13.31,1-.53,2.31.08,3.33.86,1.46,2.3.44,2.66,1.91.24,1-1,2.59-1.73,3-.48.32-1.09.23-1.49.48a5.5,5.5,0,0,0-1.25.25c-.85.5-.55,1.51-1.81,1.86-1.09.3-2.45-.83-2.09,1,.43,2.06,4,.57,4.09,2.54-1.3,0-3.24-.31-4.2.9s-.17,1.5.53,2.68c1.17,2-.88,3.64,1.07,5.54-.88.2-.74.92-1.39,1.22-.22.1-1.79.16-1.85.22s-.19,0-.31.25c-.48,1.06,1,1.15,1.13,1.93s-1,1.37-.89,2.38c.06.69,1.69,2.25,2.62,2.13s1.46-1,2.47-1.11a4.63,4.63,0,0,1,3.5,1c-1.82.77-3.17.13-4.8,1.37l-1.12.28c.54-.23-.69.87-.73.9-.76.49-1.46,0-2.11.79-.93,1.14-.21,1.42-1.63,2.12-.68.33-2.71.06-3,.39-.56.57,0,1.14.52,1.45.26.16.82-.07,1.11.07a7.94,7.94,0,0,1,1.66,1,4.6,4.6,0,0,1,2.13,3.24c0,.32.3,1.66.08,1.92-.45.57-1.84-.2-2.29.63-.76,1.42,1.44.94-.62,2a1.83,1.83,0,0,1-2.36-.35c-.23-.16,0-.79-.34-1s-1,.13-1.39,0c-.19-.1-1-1.09-1.07-1.12-1.84-.55-1.26,0-2.14,1.69,2,.05.72,4.08.45,5.2a13,13,0,0,1-1.25,3c-.34.38-.38-.13-.7.39a2.7,2.7,0,0,1-1.16.3c-1-.14-.32-.76-1.07-.91-.42-.09-2.4.92-2.37.26.4-.3,1.34-.28,1.61-.51,1.14-1,.68-2.1-.83-2.46-1.79-.43-2.53,1.3-3.56,1.94-.87.54-1.69-.1-2,1.34C79.3,326.44,78.59,325.65,79.06,324.57Z"/>
<path class="cls-5" d="M91,412.48c-1.74,0-1.53-.18-2.2-1.83-.52-1.27-1.4-2.21-1.94-3.35a1.81,1.81,0,0,1-1.06-1.12,1.87,1.87,0,0,0,.89-1.4c0-.12-.61-2-.68-2.36a53,53,0,0,1-1.4-7c-.15-1.94.79-4.95-.57-6.64.56.15.86-.05.9-.59-1.24-.11-.46-.78-.58-1.66a4.64,4.64,0,0,0-.24-.87c-.05.52,0-2.05.36-1-.24-.8-.63-1-1-1.7-.56-1.22,2.25-1.25-.54-1.47.9-1,.38-2.19.26-3.33-.18-1.83-.65-.95.56-2.15-1.35-1.14-.59,1-1.18-1.4-.31-1.29.07-1.83-.47-3.16-.37-.89-1.93-2.58-.16-3.13-1.39.43-.77-2.15-1.81-2.15.36-.9.54-1.25.32-2s-1.19.15-.91-1.35c.6,0,2.08-.37,2.21.58a8.63,8.63,0,0,1,.1-1.52c-.73-.14-.83.63-1.85.55a2,2,0,0,0,.21-1.49l-.78-.27a11,11,0,0,1,0-1.52c0-2.17.28-.89,1.28-1.15-.81-.85-2.38-3.52-2.1-4.72.64-2.69,2,.12,3.53-1.22-1.44-.74-3.08-1-1.83-2.8.43-.62,1.29-.6,1.53-.9.77-1-.12-1.48.06-2.75-.85-.12-.28,1.49-.52,1.74-.47.5-1.21,0-1.67.49s-.24,2.63-1.36,1.78c-.58-.46.25-1.15.26-1.47s.11-1,.12-1.29c0-.81-.64-1.93-.51-2.68.36-2.19,1-.77,2.63-1.83-1.57-.16-3,0-2.79-2.11.2-1.59,1.19-.84,2.08-2-1.21-.55-1.49-1.88-1.64.31-2.15.2-.6-1.68-.69-3-.06-.91-.45-.29-.52-1.52-.05-1,.12-1.78,1.09-1.91-.89.15-1.42-4.64.85-1.42.21-1.63-2.61-3,0-3.7.49-.13,1.16.35,1.72.12.31-.13-.09-.88.3-1a.82.82,0,0,1,.62-.3c1-.36,1.37,0,1,1.12.55.68.49,1.3,1.39,1.84a4.32,4.32,0,0,0,3.58.1c0-.47,0-.93,0-1.4a1.67,1.67,0,0,1,.59,0c.19-.17,1.66-.49,2-.69,1.45-.91.55.61,1.08-1.92.25-1.21.68-2.07.9-3.36.16-.88.65-1.28.59-2.29-.08-1.28-.76-1.53-.39-2.72A21.14,21.14,0,0,0,95.25,318c.17.18.18,1,.29,1.14.43.37,1.37.56,1.92,1.34.15-2.22,3.59-.42,2.44-3.47,1.77-.48,1.92.16,2.31-1.42a5.5,5.5,0,0,0-1.23-4.17,9.07,9.07,0,0,0-2.13-1.89,16.75,16.75,0,0,1-2.34-.42c1.49,0,3.4-.11,4.35-1.34.56-.74-.07-1.12.81-1.73.67-.46,1.76-.09,2.48-.42.14-.07,0-.82.18-.95a21.74,21.74,0,0,1,2.16-1.19,18.77,18.77,0,0,1,2.82-.09,6,6,0,0,1,2-.15c-1.33-1.15-2.43-2.1-4.22-2.32-1.56-.2-3.7,1.37-4.65.83-1.45-.82-.12-2.18,0-2.82a5.83,5.83,0,0,0,0-1.77c0-.24-1.12-.08-1.17-.45,2.26.12,3.4-2.15,5.83-2.12.6,0,1,.52,1.62.58,1.73.18.86-.27,2.28-.86,1-.44.86-.67,1.89.52s.58,2.71,1.5,4.18c1.29,2.09,2.48,1.49,4.62,1.31,1.75-.16,3.2-.2,4.4,1.13.89,1,.94,2.85,2.31,3.48,1.76.83,4.77.23,6.69.51,3,.44,5.76-1.11,8.28.65,1.55,1.09,1.77.86,2,3.19,0,.45-.39.88-.26,1.13.76,1.48,6.55,2,6.12-.49,1.09.05,3.46-.11,3.58-1.44,0-.37-.79-1.67-.85-1.36.13-.7.87-.76,1.29-1.1l.35-.32c1.55-1.3,1.62-3,3.24-3.93.93-.55,5-2.46,4.11.14.75-1.2,1.42-.26,2.36-.81,1.24-.73.45-1.7,2.33-1.9,1.24-.13,4,1.75,3.43,3.21-.38.93-2.52.37-3.18.4.49,1.36.68,3.74,2.49,3.85-.51-2,.67-.61,1.07-.58,1.95.11,3.75.68,5.88.06,1-.31,3.19-.71,3.77-1.23,1.34-1.19.39-1.47,2.45-1.54,1.14,0,1.64.84,2.35-.67,0,0-.09,1.35.07,1.41a.73.73,0,0,0,.71.65.76.76,0,0,0,1.05-.28c16.71,2.78-17.41-4.47,1.14-.28.44.1,1.12,1,1.56,1.17.94.4,4.42.54,5.29-.16.59-.48.27-1.19.26-2.31,1.29.06,2.51.58,3.82.6-.8-1.18.45-.49.8-1s0-1.33.66-1.51a18.69,18.69,0,0,0,2.22,1.57c.44.18.94-.09,1.38.16s.24.76.52.93c1.14.72,1.68.51,3.13.36,2.56-.27,4.54,1.36,7.19.87,1.21-.22,2.34-1.23,3-1.25a5,5,0,0,1,2.67,1.09c.75.71,1,2,1.85,2.74,1,.84,2.38.43,3.27,1,2,1.4-.33,2.1-1.7,3.1-.24-1.13-1.46-.63-1.74-.25,0,0,.32,3.19.35,3.29.43,1.26,1,.77,1.53,1.53,1.78,2.53-.6,3.1-.28,5.77.17,1.41.3.84,1.86.51,0,1,.19,3.25-.27,4.14-.55,1.06-1.5,1-2.22,1.44-1.12.66-1.55,1.74-1.31,3.39a1.76,1.76,0,0,1,2.52.54,5,5,0,0,1,0,1.55c-.35.9-.57.34-1,.85-.08.09-.71-.11-.81,0-.36.46.3,1.15.24,1.49-.16.77-.88,1.65-.22,2.54,2.71-1.4,2.59-.54,3.84,1.67a7.54,7.54,0,0,0,1.9,2.32c.72.3,2.15-.23,2.52.76a16.45,16.45,0,0,0-.45,2.15c-.78,1.91-2.37,2.15-4.24,1-1.32-.79-.78-1.13-2.11-.49-.75.36-1.31,1.33-2,1.84-.83.65-.63-.19-1.09.37-.62.77-.31,1.25-.63,2s-.89.91-1,2.07a3.43,3.43,0,0,0,.27,1.61c.1.19,1.34,1.19,1.35,1.31,0,.81-4,2.07-1.89,3.22-1.53.59-4.5-.14-5.18-1.79,1.26-.5.13-2.93-.35-4-.28-.62-1-.12-1.09-.92-.05-.55,1-1.43,1.23-1.9a16.47,16.47,0,0,0,.61-3.66c.33-3-.75-2.55-2.68-4-1.28-1-1.82-1.73-3.59-1.3-2.24.55-.15-.74-1.58.91-.74-2.1-1.67.81-1.55.81-.69,0-1-.77-.8-1.47-.83.2-.89.15-.79-.59-.79,0-1.95.21-2.25-.68.22.65-.39-.35-.46-.33-.81.21-1.41,2.14-1,3-2-1.14-2.34-.71-4.65-.63,0-.9,1.44-1.9,1-2.64-.29-.5-2.05-.08-2.52-.07-.1-3.25,0-2.84-3.44-3.08-.61-.05-1.42.1-2,0a3.28,3.28,0,0,1-1.87-.65,8.17,8.17,0,0,1-2.65-1.81c-.16.39-1.08,1-1.1,1.07-.19.86,1.19,1.4,1.21,2.11,0,.87-1,1.22-1.22,2.07a8.85,8.85,0,0,1,.25,1.49c.26,2.63-.88,2.61-2.93,3.39-1.88.71-.54,1,.5,2.6-1,1-2.11-.25-2.7-.67-.42-.3-.06-.82-.38-1-1.52-.75-2.05.73-2.34,1.66a12.37,12.37,0,0,1-1.11,2.83c-.82,1.34-1.26.68-.5,2.25.53,1.09,1,2.28,2.12,2.34,0,.74-2.26,2-2.76,2.77s-.86,2.72-1.14,2.91-1.86-.06-2.39.08c-.15,0,.2,1-1,.59a15,15,0,0,1,.61,3c-.27,1.81-.86.16-2.16.38-.8.13-.58.31-1.27.94s-2,2.45-3,2.89c-1.43.62-4.09-.76-4.64,1.91,2.05.21.12,1.29,0,1.51-.44.86.23,1-.77,1.64-.83.5-2.05.54-1.85-.63-1.81-.38-1.12,2-.22,2.71-.5.93-1.64.73-1.82,2.06-1-.88-.63-1.59-2.61-1.3-1.58.24-2.16,1.47-2.37,2.89-.94,1-1.67-1.23-2.38.51a21.51,21.51,0,0,0,0,2.42c.06,1,1.08,1.94.71,2.58-1.55-1.23-3.55-1.05-5.34-1.74,0,0-1.95.78-3,.11s-.73-1.22-2.22-1.62a3.48,3.48,0,0,1-1,.1c-.74-.2-.45-.68-1.14-1-2.17-1-1.68-.58-2,1-.26,1.39.37,2.42.35,3.61s-.67,1.15-.55,2.66a12.49,12.49,0,0,1,.39,1.74c0,2.31-.07.34-1.27.21s-1,.16-1,1.17c-1.44,0-4.41-.93-5.71.07-.34.26.28,1.22.07,1.34-1.33.77-1.72-.37-2.75-.95-1.52-.86-3.43-.57-5.09-.4,2,.3,1.08,1.64.55,2.34-.92,1.2-.6,1-2.1,1.6-.75.28-4.17,1.31-3.06,2.67-.4.11-.8.19-1.21.26-.12-2.07-3.31-2.09-3.43-.06-.9.1-1.68.07-1.74,1.21-.47-.16-1.35-1.11-1.74-.51-.77,1.21,1.49,2.18,1.73,3.05.1.41-1.69,1.54-.43,2.73s1.47-.86,2.6,1.25c1.52,2.86-3,1-2.13,3.18s2.6-.51,1,2.5c-.47.86-.62-.07-.63,1.64-2.37-.35-2.35.4-4.67,1.72-1.15.65-.52,1.45-2.33.58-.55-.27-.95-.73-1.4-1A7.7,7.7,0,0,0,91,412.48Zm77.68-109.4-.23-.38C168.35,303.06,168.32,303.27,168.68,303.08Z"/>
<path class="cls-5" d="M167,361.57c.24-2.11,1.78-.9,2.94-1.65.63-.4,1.44-3.51,2.26-4.35,1.14-1.19,2.06-1.07,1.83-3.05-1,1.33-2-1.54-2.72-2.19.32-.78,1.38-.85,1.76-1.74.28-.66.14-1.31.5-2,1.41-2.74,1,0,2.2.7.43.24,2.74,0,3.17-.67s-.41-1.81-1.28-2.23c4.5-.45,3.13-2.48,3.76-5.6,0-.15-.35-.13-.28-.43s.84-.1.93-.52c.38-1.69-1.63-3.53.67-2.56.76.32,1.35,1.38,1.67,1.51.93.38,3,0,4,0a8.24,8.24,0,0,1,2,.16c.92.54,0,1.21.45,2.11.62,1.17.69.4,2.6.56-.17.85-1.86,1.77-.8,2.8.34.32,3.38,0,3.55-.28,1.19.39,1.53,1.44,3,.78-1.23-.68-.53-1.55-.48-2.69.57,1.08,2.42.26,1.89,1.6,1.24-.48.72.71,1.61,1.07,1.81.74.9-.35,1.62-1.21,1.06.53-.76.63,1.1.61.27,0,.75-.79,1.11-.89a7.59,7.59,0,0,1,1.59,0c1.46.42,4.27,2.23,4.25,4.13a14.31,14.31,0,0,1-1,4.36c-.36.84-1,1-.82,2.08.14.77.86.53,1.1,1a10.08,10.08,0,0,1,.35,1.15c.09.28.18.57.28.85a.87.87,0,0,1-.45,1.34c.33,1.41,1.71,2.16,3,2.61s2.38.26,3.51.9c.7.39.78,1.14,1.75,1.27.65.09,1.43-.61,1.7-.57,2,.29,3.53,3.7,4.24,5.4a12,12,0,0,1,.62,1.47c.05.42-.31.89-.25,1.18.36,1.67-.32,1,1.55,1.07.24,0,.27-.56.52-.5.54.13.44.75.58.78.39.09.57.58,1.5.18-.16,1.78.43,3.1.73,5,.54,3.38,1.1,1.47,3.36,1.14,1-.14,1.23.47,2.12.51a23.31,23.31,0,0,0,2.72-.36,25.91,25.91,0,0,0,5.8-.8c-.09.61-1.11.4-1.52.73a5.07,5.07,0,0,0-1.13,1.4c-.95,1.52-.61,3.52-1.31,4.83-.79,1.47-2.53,1.12-3.85,1.63a9.13,9.13,0,0,0-2.21,1c-.43.37.14.92,0,1.3-.76.1-1.46.34-2.2.42s-2-.35-2.66-.12c0,0-.42,1-.49,1.12-.78,1.22-.46.6-.45,2.1-.69-.3-2.72-.93-3.45-.62a1.89,1.89,0,0,0-2.35-1.27c-.86.41-.69,1.51-1.56,2-1.5-1-1.81-1.7-1.92.21-.1,1.62.14,1.68,1.75,2.1,1.36.36,1.9,0,2,1.44.09,1.15.11,1.21-1.23,1a5.1,5.1,0,0,1-2.79-1.8c-.26-.32-.44-.93-.68-1.18-.44-.44-.87-.49-1.28-.84s-.41-1.14-.94-1.23c-.35-.06-1.67.85-1.93,1-1,.67-3.18,2.91-.53,3-.47.62.31,1.26-.16,2.16a3,3,0,0,1-1.5,1.35c-.42.21-.8.61-1.31.59,0,0-.28-.85-.16-.81a9.49,9.49,0,0,1-1.35-.25c-1.11-.58-.6-.73-1.83-.36,0,0-1.24.79-1.35.84.25-.12-1.15.2-1.16.21-.4.12-.91.65-1.35.82-.28.11-.78-.26-1.07-.14s-.76.75-1.07.81-1.06-.08-1.31,0a2.78,2.78,0,0,0-1.52,1,4.84,4.84,0,0,0-.61,1.64c-.14.4-.37,2.23-.56,2.52-1.43,2.13-1.57.24-3.45.21-2.54,0-2.75,1.9-2.65,3.88-.73-.52-1.26-1.62-2-.86-.16.16.35,1,.1,1.3-1,1.22-2.2-.44-3.16-.56-1.79-.24-3.11.25-4.68.32-1.23.05-2.49-.43-2.9.82-.2.58.85,1.28.44,1.93-.3.48-.64,0-1,.25-1.72,1.19-.74.09-2.21.26-.19,0-2.35,0-2.57.29-1.06-1.58-.65-.11-2.34.09a6.7,6.7,0,0,1-2.43-.65,4.22,4.22,0,0,0-2.32-.36c-2.11.05-2-.36-2-2.39a8.3,8.3,0,0,1,.11-2.5c1.43-2.92-1.14,1.83,1.33-.86.45-.5,1.15-1.06.74-1.79s-6.23-1.56-7.11-1.68c0-1,2.2-.18,2.85-.6a14.31,14.31,0,0,0,1.23-1.32c.93-1.55-.13-2.08-.28-3.95,1.91,0,.56-1.29.62-2.74,0-1,1.39-2.85,1-4.06-.45-1.52-1.27-.39-2.08-1.46.44-.71,1.15-.88,1.55-1.36,1.13-1.36,1.68-2.82,3.4-3.53.84-.35,1.78,0,1.7-1.18s-2.3-.93-3-1.05-1.85-.66-2.58-.7c.08-.67,1.22-.09,1.39-.37s.31-1.28.44-1.54c0-.05.69-.06.8-.21.23-.3-.18-1,0-1.36s1-.57,1.2-.84c1.13-1.42.79-1.65,1-3.36,0-.35-.34-.75-.3-1.12,0-.13.65,0,.66-.06.21-1.16-.27-2.13-.17-3.24.31,0,1.37-.34.56-1.09-.37-.35-4,.06-3.16-1.29C167.65,363.85,166.82,363.17,167,361.57Z"/>
<path class="cls-3" d="M54.88,232.41c-1.32-1.81-2-3.76-3.16-5.67a17.48,17.48,0,0,1-2.48-6.39c-.2-1.43.4-3.4-.84-4.32-1-.75-3.92-.08-5.24-.64a3.09,3.09,0,0,1-1.87-1.64c-.7,0-.94-.36-.72-1l0-.75c-.58-1-1.31-1.69-1.45-3-.27-2.4,1.43-2.9,2.17-4.81.56-1.43.38-4.42-.79-5.46s-3.06-.34-4.16-.58a16.7,16.7,0,0,1-6-4c-1.3-1.84.11-3.51.66-5.3.48-1.56.2-2.7,1.4-4s3.42-1.91,4.88-3.1a25.55,25.55,0,0,0,3.89-4.59c1.89-2.45,4.71-8,8.86-5.92,2.6,1.28,1.05,5.81,4.72,6.74,2.2.55,4.4-1.73,6.41-2.3,2.28-.65,4.55-.27,6.86-.23,1.77,0,3.61-.05,5-1.36s1.23-3.34,2.36-4.79,3.41-1.46,4.09-3.12c.28-.69-.23-1.43,0-2.1s.72-1.07,1.13-1.73c2.05-3.29,5.35-4.2,8.76-5.89,3.77-1.87,5.83-5.13,8.21-8.5,1.26-1.79,1.74-4.24,2.38-6.3s.35-4.64,2.58-5.37c1.6-.53,4,.54,5.38-.37.62-.43.77-2.15,1.66-2.24,1.22-.12.69.83,1,1.42.75,1.6.2,1.49,2.43,1.6a31.91,31.91,0,0,1,3.27.58,5,5,0,0,0,1.69.1c.94-.37,1.34-.09,1.21.84.14.13,1,1.1,1.12,1.25.64-.08.88.16.71.72l-.38.2c0,.54-1.14,1.14-.71,2.24s1.13,0,1.59.74c.55.93-.18,1.08-.28,1.81a19.84,19.84,0,0,0-.1,2.9c-3.82.12.33,1-.23,2.89a6.05,6.05,0,0,1,4.05,0c0-.2.16-1.08.15-1.09,1.4-.1,3,1,2.53,2.45,1.24-.39,2.18,1,3.55,1,.87,0,1.57-.91,2.43-.86.13,0,0,.6.06.63.82.34,1,0,1.41.94.32.76.15,2.36.42,3.24a2.61,2.61,0,0,0,.84.36c-.1.84-.17,1.69-.2,2.53a10.73,10.73,0,0,0,.29,3.58,16.77,16.77,0,0,0,1.37,2.9,1.71,1.71,0,0,0,.53,1.29,2.74,2.74,0,0,0,2,.34c.46.3.41,1.1.94,1.73s1.55.85,2.16,1.39c2.37,2.12,1.32,3.62.75,6-.24,1.06-.75,2.13.19,3.1.49.5,1,.9,1.38.31a4.29,4.29,0,0,0,2.78.26c.68-.65-1-2.42,0-3.25.45-.35,2,0,2.59,0-.53-1.2-.22-2-.52-3,2.13.53,2.07,1.88,3.59,2.85s1.63.27,2.27-.33c.27-.26-.11-1,.19-1.26s1.47.31,1.89,0c.61-.42.32-.1.38-1.65.72-.17,1.58,1.18,2.22,1.44-1.15.75-2.29,8-1,9,1.76,1.29,1.47-1.57,3.28-1a8.18,8.18,0,0,1,0-1.26c2.42.38,3.51-.44,5.22-2,.09.32-.93,1.14-1.08,1.65a5.45,5.45,0,0,0,0,1.89,12.23,12.23,0,0,0,.79,3c.45,1.37.56,2.41,1.85,3.14.41.23,2.13.2,2.37.72a.9.9,0,0,1-.55.2c.61.12-.28.32-.38.33,0,.9,1.15.68,1.35,1.15.43,1-.76.92-1.18,1.66-2,3.52,1.56,1.29,2.74,2.75-1.2,0-1.1.73-1.87.91-.61.14-1.35-.15-1.95,0-.34.12-.3.25-.66.49-1.21.8-2.45,4.14.13,3.63-.64-2.53,3-1.64,4.39-1.74-.24-.9-.08-1.32.75-1.42s.75.82,1.51.9c1,.11,1.23-.87,2.15-.85.6,3.71,2.39-.53,2.91-.92.56,1.28.89,1,.62,2.39,0-.07-.91,1.75-1.06,1.88q.08,1.09-1,.81l-1.55,0a5.75,5.75,0,0,0-2.43.39c-.86.47-.85,1.51-1.41,1.91a11.28,11.28,0,0,0-1.8.45c-.48.43-.93.88-1.36,1.35-1.11.8-2.22.65-3.37,1.16-.48.22-1.16.88-1.75,1.17-1.92.94-3.1,2.34-5,3.1-2.58,1-3.11,2.22-4.85,4.24-1.05,1.22-2.53.77-3.57,1.65s-.35,2.89-2,2.38c.71,1.93,1.06,4.65,2,6.39.88,1.58,3,2,4.7,2.19a30.5,30.5,0,0,0,5.78-.18c1.13-.1.62.54,1.31.05s.19-1.68,1.58-1.72c-.07,1.91,2.68,5.06-.31,5.84a2.61,2.61,0,0,1,.18-1.32c-1.47.59-2.6,1.48-4.2,1.67-.74.08-3.54-.53-4,.06-1.93,2.3,3.37,4.16-1.38,4.5.87,2.81,4.12,1.8,4.68,4.17,1,4-2.87,1.05-4.32,1.51.66,1.76-.39,5.66,1.44,6.78-.36.78-1.54.55-1.84,1.49-.6-.13-.38-1-.34-1.44-2.31.45-2.06-.78-2.29-2.51-.37,1.24-1.27,1-2.36,1a1.83,1.83,0,0,1,0,.87c-1.42-.39-6.43-1.94-7.56-1-.31.25-.27,1.22-.42,1.66-.48,1.38-1.07,1.46-1.88,2.26-.3.29-1,.11-1.16.49-.64,1.33,1.37,1.22-.42,2.27-2.16,1.26-3.65-1.39-4,2-.63-.55-2.43-1.52-2.64-1.9s-.06-2.23.46-2.48c.18-.09,2.34.7,3,.62a4.61,4.61,0,0,0,2.42-.94c1.49-1.38,0-.58-.54-2.06-.38-1,.08-2.51-.13-3.59-.11-.61-.63.21-.62-.57,0-2.49,2.84.29,3-2.85.09-2.37-.41-.51-1.37-1.66s.52-2.77-1.19-3.28c-1.41-.42-2.72,1.06-3.88,1.62a2.17,2.17,0,0,1,0-.88c-1.37-.09-2.75-.16-4.11-.32-.24,0-1.68-.05-1.85-.27-.64-.86.2-.41.25-.92-.09,1,1.16-1.66.72-1.05.44-.61-.22-1.35,1-1.16.08-1.1.37-2.73-.31-3.33-.52-.46-2.85-.08-3.36.34-1,.84-.33,2.26-1.46,2.9-2.46,1.36-2.2-2.59-3.89-2.27-2.28.43,1.84,5.46,2,6-.54-.18-1.6-1.71-1.68-1.75-2.23-.82-1.14.94-1.41,2s-2.12,1.83-1.41,3.53c.5,1.18.69.13,1.8,1.19-.61.52-.37,1.81-.66,2.49a11.76,11.76,0,0,1-1.21,1.57c.76,0,2.15-.24,2.79.07,1,.46.64,1,1,2.35.09.35.59.87.57,1.23-.07,1.12-1,1.61-1.28,2.63-.37,1.17.1,2.43,0,3.63-.21,3.11-2.26,3.42-4.88,4.33-2.29.79-1.16.4-1.87,1.93-.25.53-.13,1.1-.75,1.54,1.55.57,4.37,1,2.3,2.42a17.63,17.63,0,0,1-4,1.52c-.45.07-1.22-.44-1.46.11-.41-.4-.65-1.49-1.22-1.76-1-.44-1,.14-1.71.13-.22,0-2.76.15-3-.13-.12-.13.25-1.6.13-1.91-.53-1.33-1.34-.93-2.43-1.24a6,6,0,0,1-1.25-.24c-.67-.36-.93-1.17-1.64-1.51-2.28-1.09-2.46.81-2.76-1.94-.17-1.53,0-3-2.25-1.95-.62-1.06-.22-1.63-1.08-2.64-.28-.32-1.12,0-1.29-.51-.36-1.16,1.93-2.43,2.22-3.47a2.39,2.39,0,0,0-.88-2.71c-1.55-.82-.73.32-1.86.56-.81.16-1.78,1-.83-1.16a1.71,1.71,0,0,1-2.09-2.06c.2-1.41,1.63-1.77,2.69-2.43a2.5,2.5,0,0,0-1.89-.66c0-.68.5-1.86.06-2.3s-2.31-.15-2.66.14c-.55.45-.45,2.18-1,2.41,0,0-1.51-.83-1.88-.91s-1.57.24-1.84.06c-.52-.33,0-.71-.41-1.15,0-.06-.23-.47-.28-.55a12.24,12.24,0,0,0-2.4-1.57c-1,.08-.66.68-1.43,1.33A7.62,7.62,0,0,0,77.06,240c-1.12-1.22-2-.26-3.17-1.1-.64-.43-.35-1.85-.72-2-1-.45-2.62.7-3,1.57-.62-.22-1.68-1.29-2,.86-.93-.27-.9-1.83-2.35-2.13-.76-.15-1.77-.07-2.56-.19-1.68-.26-4.14-1.17-4.22,1A.93.93,0,0,1,58,236.86C58.07,235.75,55.65,233.47,54.88,232.41Z"/>
<path class="cls-4" d="M162.41,181.55a7.36,7.36,0,0,1,.22,1.65,1.52,1.52,0,0,0-1.73,1.32c-1.14.16-.38-3.88-.31-4.61a15.79,15.79,0,0,1,.58-3c0-.08.6-.39.59-.48-.09-1.7-3.57-4-3.68-.89-1.49-.09-1.34.06-2.28.72s1,1.43-.92,1.2c-.78-.09-2-2.21-2.83-2.64-3.39-1.75-3,.18-2.05,2.49-2.91-.16-2.72.88-2.32,3.44-.86-.38-2,.2-2.73-.37-1-.79-.43-2.47-.11-3.44.68-2,1.28-2.56-.06-4.67-.86-1.35-2.5-1.65-3.27-2.78-.48-.7-.11-1.37-.61-1.77s-1.61.35-2.19-.16-.26-1.17-.46-1.62c-.86-2-1.54-2.95-1.5-5.24,0-1,1.11-3.58-.43-3.38.05-.4-.47-.3-.7-1.13s.39-1.77,0-2.54a11.31,11.31,0,0,0-1.47-1.57c-1.72-.55-4.15,1.38-5.61-.33-.26-.3-.11-1-.41-1.32a6.3,6.3,0,0,0-3.48-1l-.42.79a6.64,6.64,0,0,0-1.84-.16c-.51.36-.81.37-.9,0,0-.13-.08-.27-.11-.41.09,0-1.3-.76-1.28-.73,2-.06,1.47.1,1.54-1.76,0-1.24,1-3.13.43-4.35-.09-.2-1.43.11-1.53-.05-.68-1.12.55-1.31.68-1.77a3.16,3.16,0,0,0,.13-2.29c-.76.89-1.61-.25-1.7-1.17,1.68.26,2,1.23,3.74.69.59-.18.54-.63,1.39-.79,2-.38,4.9,3.51,5.64,1.5-.42-.28.39,5,1.73,2.34.19,1.11-1,1.43-1.08,2.38s.55.84,1,1.7.59,2.66,2,1.25c.52-.51,0-1.18.31-1.74.19-.35.68-.47.89-.78a9.44,9.44,0,0,1,1.14-1.69c1.47-1.2,2.66.69,4.6.12.49-.14,0-.74.42-.89,1.84-.59,1.63.52,2.74,1.09a5.64,5.64,0,0,0,3.19.46c.38-.12,1.1-1.41,1.43-1.65,1-.74,1.61-.11,1.79-1.93-1.72.16-.14-4-.13-4.91,1.71.49,2.28,1.2,2.89-.75,1.68.07.08,3.35,2.72,1.61.35-.23.89-.31,1.05-.77.24-.69-.57-2.07-.53-2.19.35-1,1.79-.62,2.14-1.16s.39-2.11-.5-2.11c-.73-1.41,3.5,1.53,2.84,1.61,1.34-.16.75-3.15.75-3.93,0-1.47.11-2-.56-3.08-.16-.27-1-.19-1.15-.5s.23-.67.17-1c-.13-.72-.13-1.76-.21-2.49,0-.42-.8-.78-.71-1.21,1,.23,2.17,2.64,2.87,3.37s2.82,2,3.27,2.86-.49,2.79.1,3.51c.29.35,1,.09,1.56.32a12.34,12.34,0,0,1,1.33.9c.61.34,1.42.51,2,.83a3.21,3.21,0,0,1,1.38,1.07c.4.65.56.82-.45,2.32A37.73,37.73,0,0,1,169,137.4c-.86.95-3,2.13-3.58,3.59s-.21,2.12-1.05,3.49a13.42,13.42,0,0,0-.85,1.59,13.62,13.62,0,0,0-.22,8.23c.53,2.16,0,4.61.75,6.69a2.41,2.41,0,0,0-2.89,1.59c-.21.66.1,1.2-.14,1.72s-1.34,1.08-1.34,1.73l.35,0-.35,0c-.13,1.77,2.16.9,2.86,1.16,1,.39,1.46,2.38,2.83,1.82s.21-2.59,1.47.25c.78,1.76,3.12,3.75,3.15,5.85,0,1.66-.05.26-.95,1.55-.67.94-1.26,1.88-.13,2.9C166.86,180.65,165.07,183.48,162.41,181.55Z"/>
<path class="cls-4" d="M110.44,133.26c.87-.44.93-1.79.94-2.68,0-1.38-1-2-.64-3.11.06-.18.9-.16.92-.28,0,.19.24-.75.17-.64s-.74-.26-.42-.72.89-.11,1.18-.3c.62-.4,1.09-.32,1.75-1.15.35-.46.31-1,.6-1.33.07-.09.76-.43.92-.59a20.83,20.83,0,0,0,1.72-2.31c.71-.79,1.8-1.2,2.65-2,1.32-1.2,2.22-2.47,3.57-3.53.3-.23,1.7,0,1-1-.49-.81-1.68.83-2.27.34-.89-.75-.44-3.06.05-4.06.38-.78,3.35-3.11.6-3,1.29-1,.24-2-.26-3.32-.12-.33-.63-.85-.57-1.23.09-.58.61-.35.73-.57a10.07,10.07,0,0,1,1.63-2.33c.82-.64,1.74-.28,2.52-.75s.66-1.48,1.31-2c.93-.66,2.3-.38,3.44-.39,1.44,0,2.94.07,3.77-1.32a8,8,0,0,0,.8-4c1,0,2.08.92,3,.58.45-.16,0-.45.38-.63s.72-.64,1.12-.83,1.17,0,1.68-.16.48-.92.66-1.3a17.23,17.23,0,0,1,1.33,1.91c-2.17.31-1.13,1.2-2.31,2.22-.64.56-1.76-.06-2.26,1-.24.52.48,1.31.21,1.87-.21.4-1.19.5-1.54,1,.91.67,2.14.51,3.18.91a7.71,7.71,0,0,1,3.54,3.51c-2.8.79,2.26,5.6,2.63,7,.26,1-.34,2.24.4,2.72,1.6,1,2.89-.54,3.22-1.75.62.49.77,1.27,1.24,1.81.79.89,1.32.51,2,1.07a3.76,3.76,0,0,1,.7,2c.07,1.77-.76,2.65,1.2,3.94,1.16.76,2.36,1.06,2.55,2.76-2.2-.29-1.85.91-1.52,2.28l.32-.15c-.11.44-.07.3.22.85-.14-.27.24.13.66.32.72.33,1.53.35,1.91,1.17s0,3.55-.05,4.58c-.59-1.45-3.07-2.23-3.61-.46-.22.69.81.55.54,1.24s-.75.47-1.44,1c-.11.08-1.18.92-1.19,1-.18,1.23,2.43,1.27.21,2.61-1.47.89-.08.17-1.23-1.06-1.55-1.67-1.12,0-1.86.79a18.81,18.81,0,0,0-2.58-1,15.11,15.11,0,0,0-.91,4.82,15.3,15.3,0,0,0,.62,1.78c-.24.71-1.35,0-1.59,1a3.64,3.64,0,0,1-.47-.76c-.13.68-.33,1.71-.86,1.94-1.28.57-2.32-1.17-3.17-1.59-1.41-.71-1.83.28-2.8.49a10.26,10.26,0,0,1-2.71-.13c-1.68-.09-1.61.15-2.66,1.38-.11.13-2.55,3.66-1.84,3.45a6.77,6.77,0,0,1-1.85-2.25c-.08-1,1.88-1.69,1.09-3-1-1.64-.88.38-1.5.15s.24-2-.19-2.46c-1.19-1.22-1,.54-1.64.6-.48-.08-1.41-1.64-2-1.94a6.15,6.15,0,0,0-3.43-.52c-.53.13-.66.67-1,.76-1.27.3-1.89-.33-3.26-.6a50.75,50.75,0,0,0-6.41-.77c-3.27-.2-1.2.08-2.22-2.08A1.48,1.48,0,0,0,110.44,133.26Z"/>
<path class="cls-4" d="M196.21,113.59c1-.14,1-1.56,1.29-2.21a2.1,2.1,0,0,0,.95-.22,3.29,3.29,0,0,0,.06-1.25c.43.07,2.58,2.36,1.8,2.56,1.83-.45.94.69,1.48,1.58.39.65.78,1.19,1.16,1.82a12.57,12.57,0,0,0,3.09,3.64c2.27,1.7,1.72-.1,4.16,0,2,0,1.9,2.1,3.49,2.9s2.13.23,3.25,1.79a1.29,1.29,0,0,0,1,.7,4.63,4.63,0,0,0,0,1.66c.61,1.23.33,1.44,1.64,2,1.09.46,2.52,0,3.7.53a23.27,23.27,0,0,1,2.5,1.24c.94.61.87,1.19,1.61,1.92s1,.54,1.73,1c.4.25,3.25,1.53,2.41,2.69-.26.36-1.21-.06-1.66.23-1,.59-1.23,2.6-2.14,3.17-.5.32-1.34-.13-1.88.31-.71.58-.42,1.68-.94,2.37s-1.14.6-1.58,1c-1.08,1-.75.78-.89,2.3-.08.84.48,1.49-.1,2.33-.43.62-1.15.6-1.62,1.37-1.16,1.88,1.07,3.81.58,5l-1.14,0a1.62,1.62,0,0,1-.55,1.08c-.59.84-.84,2-1.35,3-.6,1.07-3.91,4.09-1.89,5-1.06.73-.33,1.73-1.94,1.6.16,0-.84-.91-1-1a2.37,2.37,0,0,1-.61-.51c-.55.23-.79.15-.73-.23s0-.73,0-1.09c-.11-.07.05-.21-.14-.29-.92-.37-3.28.18-4.37.14a10.2,10.2,0,0,1-2.6-.08,3.94,3.94,0,0,0-.76-1.27c-1.33-.74-3.57-1-4.4-2.07-.34-.46,0-1.2-.53-1.69-.84-.78-1.91.05-2.77-.19-1.4-.39-.43-.4-1.24-1s-2.75-1.33-2-2.54c.57-.93,3.52,0,2-2-.57-.77-3.48-2.25-4.24-2.84-1.56-1.21-2.16-3.06-3.66-4.16a4.1,4.1,0,0,0-3.82,0c-.6.38-.46,1-.8,1.26s-.8.14-1,.32-1.54,1.82-1.53,1.82c-1.4.19-1.08-2.35-1-3.08a11.79,11.79,0,0,1-2.21.52c-1.69,0-1.1,0-1.63-1.38-.94-2.43-.15-2.26,1-4.25.57-.95.51-2.45,1.11-3.3.33-.46,1.64-.16,1.48-1.08-.07-.44-3.27-1.17-3.74-1.46a6.93,6.93,0,0,1-2.41-2.18c.73-.57,2.23-.78,2.79-1.47,1.09-1.32-.13-1.16-.2-2.19s.8-2.27-.31-2.73c.2-1,.52-2.71,1.64-2.48,0-1.06-.56-1.06-.61-2.13,1,.06,1.86-.2,1.54-1.35-.17,0-.29.08-.46,0a3.43,3.43,0,0,1,1.57-2c1-.37,1,.57,1.72.45s.74-.41,1.26-.66a2.65,2.65,0,0,0,.31-1l1.17-.21c2.45-1.13,4.39-.14,7,.11,1.13.12,2.18-.2,3.27.29.93.41,1.17,1.54,1.65,1.77.75.35,3.2.18,3.41-.64.15-.63-.9-1.75-1.32-2.17A4.4,4.4,0,0,1,196.21,113.59Z"/>
<path class="cls-5" d="M190.63,91.62c.5,1.25-1,1.65-.83,2.57.11.48.79.44.94.74a11.11,11.11,0,0,1,.56,1.27c.27.72,0,1.27.35,2.11.1.19.78.17.92.43.56,1,.67,2.57,1.2,3.71a7.26,7.26,0,0,1,1,3.93c-.13,1.13-.87,1.85-1,2.9-.09.77.27,2.49,1.25,1.64.25,2.79,1.67,3.55,2.77,5.84l-1.34.11c-.76.25-1.19-.05-1.31-.89a6.8,6.8,0,0,0-3-1.21c-1.37-.17-2.41-.18-3.72-.44A11.53,11.53,0,0,0,186,114c-2.08.13-.36.18-1.65.43a9.39,9.39,0,0,0-2.83.64c-.46.26-.11,1.24-.58,1.56-.41.09-1.1-.89-1.75-.83a3,3,0,0,0-1.48,1,3.2,3.2,0,0,0-1.22,2.59c-1.77-.05-.87,1.21-1.12,2.46a23.28,23.28,0,0,0-.91,2.44,1.9,1.9,0,0,0,.25,1c0,.29.26,3,.28,3,0,.15.56.17.2.76-.22.38-.92.37-1.27.61a9.66,9.66,0,0,1-2.08,1.25c-.5-1,.22-.72-.58-1-.44-.18-1,.06-1.52-.12-.65-.24-.83-.8-1.43-1.13-.81-.44-1.76-.46-2.06-1.07s.09-1.23,0-1.77c-.32-1.8-1.41-2-2.74-3.3s-2.26-3.32-3.66-4.28-3.42-.43-3.72-2.56c-.18-1.35,1-3.3-.4-4.19-.55-.35-1.17.13-1.7-.2-.31-.2-.31-.85-.54-1.09-.44-.48-1-2-1.9-1.79-.56.14-1.16,3.23-2.6,1.82a7.51,7.51,0,0,1,0-1.7,6,6,0,0,0-1.36-2.87c-.51-.74-2-1.94-2.13-2.82-.16-1.29.79-.6.79-1.09,0-2.63-3.46-5-5.88-5.13,1.54-.5.1-1.64.53-2.38s.9,0,1.61-.46c.12-.06.53-.77.5-.4.14-1.92,2.06-1.33,2.47-2.16s-1.17-2-1-2.88c.09-.39.85-.57,1.09-.88a4.66,4.66,0,0,0,.87-2.72c.17-1.27.77-3.57-1.11-3.66.17-2.12,1.49.19,2.9-.38.93-.38,1.22-1.54,2-1.88,1.62-.68,1.67,0,2.79-1.54a17.63,17.63,0,0,1,.91-1.63c.92-.7,6.2-.87,7.05-.2.61.47.17,1.39,1.32,2,.69.34,1.26.11,1.89.53s.89,1.71,1.42,2,.27-.2,1.29.11a5.88,5.88,0,0,1,1.79.74c1.37.73,1.8,1.24,3.5,1.07,2-.2,3.63-1.72,5.47-1.94-.06,1.75.5,1.68,1.62,2.71.54.49.54.23,1,1s.13,1.66.46,2.22-.14.35.33.68,3.08.18,3.65,0c1.12-.35,2.3-2.55,3-.61s-1.43,3.69-1.69,5.48c.72-1,1.87-1.66,2.73-.56C189.39,91.41,190.45,91.17,190.63,91.62Z"/>
<path class="cls-4" d="M219.59,35c0,.55.22,1.2.06,1.74-.23.73-.7.71-1,1.28-.83,1.81-.41,3.65-1.34,5.53-.53,1.08-.92,3.2-1.51,3.59-1.2.78-2.9,0-4,1.57-.84,1.23,0,1.91-1.33,2.46-.84.34-2.44.17-3.41.33,1,1,1,2.91.78,4.21-.39,2.13-2.11,1.93-1.87,3.94-1.26-.08-2.47,0-3.71-.11a18.2,18.2,0,0,0-2.42-.44c-2.54.21-1.95,1.29-1.25,3.41.25.76,1.58,3.24,1.49,3.9-.19,1.45.05.31-.79.77-.41.23-1.48-.17-1.83.21a15.57,15.57,0,0,0,.42,3.81,7.65,7.65,0,0,1-3.12-4.81c-.05-.53.81-1.43.72-2.38s-.71-1.67-.55-2.84,1.69-2.1-.11-2.75c.4-.4,2.16-.64,2.68-1A5.14,5.14,0,0,0,199.35,56c1.12-2.54-1.5-3.72-3.07-4.84a3.15,3.15,0,0,1-1.13-.34c-.1-.38-.19-.77-.26-1.16-.08-.06-.15-.26-.25-.35a4.62,4.62,0,0,0-2.43-.91l-1.48,0c-.64.22-.89,0-.75-.61a9.41,9.41,0,0,1-3.06-2.09,11.64,11.64,0,0,1-1.64-8c-2.05.42-.89-4.06-2.2-4.57,2.27.78,1.54-3.63-2.11-1,0-1.45.26-2.22,1.79-2.64.7-.19,1.48.27,2.16.09.85-.22.32-.43,1-.82a21.67,21.67,0,0,1,2-1c1.7-.71,3.73-1.34,5.54-2.1,2.59-1.08,4.41.07,7-.17,2.07-.19,2.14-3.07,4.6-2,.42.19.15,1,.37,1.11s1.15.19,1.55.36a32.09,32.09,0,0,0,3.41,1.33c2.47.72,4.24-.53,6.05,1.57a8.21,8.21,0,0,0,1.89,1.84c.94.64,1.47.7,2.08,1.91C220.76,32.34,219.66,34.08,219.59,35Z"/>
<path class="cls-4" d="M121.85,81.61c-.87-.11-1,.89-1.92.23-.41-.31-.21-1.07-.52-1.38-1-1-2.15-1.35-3.32-2.31-1.35-1.12-2.46-.78-4-1.35l-1.06,0,0-.76c-.85-.57-1-1-2.18-1,.21-1.77-.29-3.26-.17-4.81.12-1.74-.21-3.65-.12-5.45a48.83,48.83,0,0,0-1.13-11.39c-.35-1.88-.79-3.52-.25-5.37.89-3,1.81-.32,3.76-1.51,1.37-.83.5-3.14,1.43-4.07s3.4-.72,4.25-1.24,2.57-3.12,2.32-4.39c-.29-1.49-.26-.51-1.23-1.23-.56-.4-1.76-.76-2.54-1.27-1.18-.79-3.14-1.19-2.51-3.18.43-1.36,2.79-2.2.59-3.26-1.16-.55-2.79.11-4.1-.46-.29-.33-.59-.63-.91-.93a5.08,5.08,0,0,0-1.23-.18,10,10,0,0,1-2.76-2c-.49-.69-.12-2.47-1.06-3,.49.29-2.41-.51-2.09-.5-.43,0-2.15.12-2.24.15-.51.13-1.35.81-1.84.78.06-1.32-2.31-1.48-2.52-2.2,0-.14.25-1.83.28-2.28a3.64,3.64,0,0,1,.31-1.93c.86-2.3.85-.81,2.48-1.67.1-.05,1.29-1.57,1.58-1.83s1.18-1.45,1.34-1.54c0-.53.27-.64,1-.35.89.28,1.28-.08,1.15-1.06.51-.54.9-1.82,1.44-2.32,1.7-1.54,3.9-1.66,6.3-1.31,1.58.24,4.22,1.4,5.81.32,2.33-1.59-1.55-2.46-2.78-3.12,1.38-.79,3.71.26,5.11.6a9.11,9.11,0,0,0,1.79.41c1,.37,1.39,0,1.21-1,.77-.34,2.06-.43,2.9-.72a13.89,13.89,0,0,1,3.43-.42c.94-.13.88-.84,1.72-1.1,2.08-.64,2.26,1.24,3.82,1.52,1,.18,2.58-.62,3.78-.4,1,.18,4.09.27,4.69,1,1,1.27-1.37,4.09,1.29,4.28.27,0,1.22-1,1.74-1a3.56,3.56,0,0,1,2.69,1.3c1.52,1.46,1.55,3.64,2.88,5.18a15.13,15.13,0,0,0,2.19,2c.92.67,1.18.49,2.1.81,1.33.47,1.27.18,2.32,1.29.55.57.47,1.09,1.21,1.56,1.91,1.23,3.3.15,4,3,.55,2.12.14,3.89,2.79,4.44.74.15,1.58-.23,2.3-.06,1.33.3,1,.78,2,1.33,1.55.86,2.65.31,3.92,1.67,1.55,1.65.31,1.17-1.37,2.6l-.17-.45a3,3,0,0,1-2.09,1.4c-3.07.43-.28,0-1.63-.73a1.52,1.52,0,0,0-.45-.81,1.35,1.35,0,0,0-1.16-.11c-.32-.12-.95-.06-1.25-.15s-1.63-.94-1.93-1.13c-1.17-.75-2.05-3-3-1s2.42,5.68,3.37,7.38c.49.87,2.89,4,2.67,5-.29,1.4-3.74.33-4.79,1.1-2.41,1.76,0,3-3.65,3.11a12.29,12.29,0,0,0-3.91.65c-.42.16-.82.34-1.22.53-.71.83-1.18.87-1.42.11-1.19,0-.49-.76-2.11-.16-1.37.5-2.42,2.76-4,3-.6.08-1.12-.3-1.68-.42-1.17-.26-2.76-.1-3.84-.45s-1-.93-1.56-1.5c-1.17-1.12-5.92-1-7.95-1,0,0-2-.86-2.33-1-1-.56-1.38-1.37-2.83-1.64a17.32,17.32,0,0,0-2.68-.28c-1.48.16-2.19,1.7-3.52,2s-2.58-.84-3.52.92c-.54,1-.1,2.14-1,3.07s-2.92,1-2.31,2.67a1.92,1.92,0,0,0,2.84.63c0,1,.8,1.45.65,2.17s-1.44,1.2-1.56,2.31c-.37,3.38,3.72.71,5.39,2.27,1.49,1.39-.53,2-1.91,2.74s-3.77,1.7-2.63,3.92c.63,1.24,2,1.32,2.55,2.78a2.16,2.16,0,0,1-.4,2.54c-1.51,2.06-2.58,1.25-.74,3.6a16.51,16.51,0,0,0,1.83,2.18c.43.39,1.21.63,1.58,1,1,1,.35.86.91,2.31.28.72,1,.44,1,1.4A1.39,1.39,0,0,0,121.85,81.61Z"/>
<path class="cls-2" d="M206.09,86.57c-.28.25-2.6,3.68-2.73,1.08-1.05.62-1.19,1.8-1.85,2.36-.18.15-1.2.5-1.49.68s-1.19,1.57-1.63,1.73c-.68.24.25.36-.94-.06a6.16,6.16,0,0,1-1.54-1.42l-.69-.19c.35-1.06,0-1.55-1.06-1.49-.27-1.16.39-2.52.31-3.71-.57-.1-1.3,1-1.8,1.28-.67.39-1.6.4-2.32.82-.24.13-1.67,1.34-1.63,1.55s1.43.89,1.68,1.49c-1.13,0-1.22-1.24-2.42-1.23.52-2.09,1.46-6.07-1.89-4.68-.55.23-1.22,1-1.74,1.12a12.24,12.24,0,0,1-2.8-.12c0-3.06-1.94-2.77-3-4.91-.73-1.42.8-1.85-1.37-1.62s-3.47,2.11-5.82,1.86c-1.13-.12-1.3-.65-2.2-1.16s-2-.26-2.84-.67c-1-.52-1.47-2-2.59-2.53-.58-.29-1.21,0-1.72-.49s0-1.26-.39-1.59c-.88-.71-4.89-.4-6.13-.24a2.7,2.7,0,0,0-2.19,1c-.47.53-.56,1.64-1,2-.94.83-1.74,0-2.75.49-.37.17-.13.39-.42.62s-.92,1.62-1.47,1.64c-1.1,0-.76-1.41-2.05-1a1.88,1.88,0,0,0-.85,2.2c.42.94,1.12-.17,1.22,1.81a4.59,4.59,0,0,1-1.43,4c-.28.22-.69.38-.9.58s-1,1.09-1,1.12c-.69.32-2,.32-2.63.56-.18.08-.54,1.18-.79,1.28a22.26,22.26,0,0,1-2.86-.57c-.52-.24-1.48-1-2-1.28-.31-.18-.83.17-1.13,0-.11-.06-.15-.84-.43-1-1.36-.68-1.54.43-2.76.08-1-.28-.64-1-1.92-1.25a2.63,2.63,0,0,0-2.4.66c-1-1.08-.12-1.66,0-2.49a21,21,0,0,0,.36-4.41c-1.24-.12-1.21.48-1.29,1.49-2.22.14-2-1.23-2.78-2.39-.3-.42-.89-.83-1.12-1.39s.24-1.07-.21-1.69-2-.89-2.66-1.54a30.92,30.92,0,0,1-2.33-2.63c-.36-2.11,4.1-2.52,2-6-.72-1.18-3.08-1.71-2.51-3.44.31-1,2.39-1.81,3.17-2.23s2.39-.79,2.39-1.92A5.76,5.76,0,0,0,119.29,57c-1.52-.74-6.63,1.27-4.52-2.14,1.08-1.74,1.45-1.08.62-2.95,0-.1,0-.93-.07-1-1.07-.8,0,.2-1,0-.27-.07-1.76.34-1.89-.59s1.62-1.23,2.2-1.76c1.26-1.17.7-3.64,2.45-4.15.38-.11,1.27.37,1.82.27.81-.15.92-.53,1.56-.9a4.67,4.67,0,0,1,2.67-.85c2.73-.13,3.94,1.61,6.4,2.31a13.11,13.11,0,0,0,2.26.49c.85.1,1.68.36,2.55.39a14.75,14.75,0,0,1,2.32-.22c1.09.28,1.19,1.82,2.64,2.26a31.46,31.46,0,0,0,4.88.74,3.42,3.42,0,0,0,2.51-.65c.74-.44,2.4-2.41,3.26-2.43.47,0,.57.23,1,.28,0,.83.35,1,1.21.43l.48-.27c.8-.19,1.56-1,2.31-1.19,1.48-.42,4.59.47,5.68-.61.78-.77.26-2,1.26-2.75,1.3-1,2.76.06,3.91-.4,2-.81.67-2.39,0-3.72-.46-.86-6.29-9.34-4.7-10.17,0,0,3.92,3,4.46,3.21s1-.27,1.35-.1c.63.28.22.72.76,1.1s.74.81,2,.59c.43-.07.93-.21,1.33-.28a9.66,9.66,0,0,1,2.37-.51c1.11,0,2.43,0,3.54-.1,2.24-.24,3.42-1,3.59,1.73.46.11,3.76-2.06,3.66-.53-1.58,1.1-1.11,3.21-.41,4.91,0,.08,1,1.13.93,1,.15.87-.44,1.32-.29,2.16a20.94,20.94,0,0,0,2,4.68c.52,1.05.08.87.92,1.6.42.37,1.15.42,1.45.69.76.68.7,1.12,1.49,1.49,1.07.49,2.44-.4,3.53.41.76.57.45,1.16,1,1.76.42.43,1.33.55,1.85.84,1.72,1,3,2.07,1.78,4.05a4.87,4.87,0,0,1-1.38,1.34c-.28.15-2.16.12-2.37.48-.62,1,.54,1.21.44,2.28-.08.88-.82,1.25-.65,2.41.13.89.73,1.5.66,2.48,0,.6-.9.82-.87,1.4a6.25,6.25,0,0,0,1.39,2.84c.41.62.88,1.24,1.24,1.75a9.67,9.67,0,0,1,.71,1.36,12.21,12.21,0,0,0,3.93,1.67c1,.24,3-.26,3.69.72.85,1.17-1.29,2.75-1,4.19s2.2,3.18,3.08,4.43C208.67,85.49,207.28,85.49,206.09,86.57Z"/>
<path class="cls-6" d="M370,297.66c.1-.28.29-.36.59-.26-.4-.09.18-3.29.32-3.67a2.9,2.9,0,0,0,1.49.13,7.84,7.84,0,0,1,.64,2,5.71,5.71,0,0,1,.13,2,14.1,14.1,0,0,1-1.94,2.75C371.12,299.16,371.85,297.82,370,297.66Zm-11.59,2c1.41,0,1.1-.78,1.35-1.93.13-.6.68-1.12.46-1.79-.49-1.47-1.06,2.42-1,2.35C359.15,298.4,358.2,299.68,358.4,299.68ZM373.83,296c.38.91.79,2.71,1.66,3,2.05.64,1-1.62.79-2.36s-.59-3.33-1.81-3.43C372.91,293.08,373.46,295.14,373.83,296Zm-.71-5.58c-.17.58,1.92,2.07,2.63,1.62a1.31,1.31,0,0,0,.22-1.71C375.35,289.67,373.87,290.4,373.12,290.44Zm-2.22.94c-.58.6-1,.32-1.47.78,1.73.51,3.21,1.58,3.4-.61.07-.9.41-1.27-.65-1.55C370.67,289.6,371.62,290.61,370.9,291.38Zm-1,2.8c.15,0,1.37-.7,1.65-.71a.68.68,0,0,0,0-.4c-.32,0-1.5-.62-1.81-.33S369.13,294.12,369.85,294.18Zm5.89-6.21a4.73,4.73,0,0,0-2.36-1.65c-.1,1.14.55.33.71,1.29a8.27,8.27,0,0,1-.37,2.52C374,289,377,290.68,375.74,288Zm-2.74-1.3a8.56,8.56,0,0,1-1.89,1.33,1.27,1.27,0,0,0,1.08,1.62C373.65,289.7,374.29,286.72,373,286.67Zm-10.67,12.66c.13-1-.7-1.43-.27-2.61C361.28,297.12,360.79,299.63,362.33,299.33Zm8.15-8.92c0-.05.82-1.15.51-1.2-1.44-.22-3.53.69-3,2.52C368.17,292.2,370.33,290.87,370.48,290.41Zm-5,9c.16-.75.54-3.86-.09-3.58C364.58,296.2,363.68,299.06,365.49,299.42Zm3.82-4.9c-.26-.77-1.72-.83-2.22-.26-.17.2,0,1.15,0,1.38-.26,1.38.1,2.9-.07,4.3C368.85,300.11,369.77,295.84,369.31,294.52Zm-.26-1.13c.17-2.13-2.14-.36-2,.36C367.41,293.78,369,294,369.05,293.39Zm12.8-85.94a6.71,6.71,0,0,0,1.76-1.92c.23-.33,1.06-.88,1.2-1.31.23-.73-.23-.22-.24-.82,0-1.68-.47-3,.28-4.69-2.05.6-4.16-.14-6.16.8a1.67,1.67,0,0,1,.68-1.36,24.54,24.54,0,0,1-2.73-1.11c-1.34-.4-1.39-.07-2.65.19-2.51.51-2.1-.19-3.87-1.35-.55-.36-1.32-.2-1.95-.59-1.05-.65-1.21-1.47-1.65-2.53s-1.32-2.88-2-.8a4.28,4.28,0,0,0-.58-1.15c-.82.83-1.22-.3-1.9-.21-1.59.21-.08,0-.95,1-1.1,1.15-2,1.25-3.64,1a29.64,29.64,0,0,1-3.32-.44c-1.07-.33-1.32-1.66-2-1.79.17,1.36-.17,2.19.5,3.15.16.22.86.43,1.13.74a2.41,2.41,0,0,1,.54,1,14.49,14.49,0,0,0,.22,1.83c.25.67.94,1.11,1.16,1.77.52,1.6,0,1-.5,2.32,1.78,1.22,1.35,1.11,1.64,3.3.26,1.94,1.34,3.29-.19,4.91-.75.79-1.58,1.41-2.31,2.25-.14.16-1,.66-1.25.88s-.35,1.09-.58,1.35a8.3,8.3,0,0,1-1.41,0,2.4,2.4,0,0,1-.16,1,3.06,3.06,0,0,0-.64,1.76c.13.57,1.36,1.53,1.8,1.82,1,.65,1.8.55,2.45,1.92a12.58,12.58,0,0,1,.79,3.87c-1.62.22-1.69-.86-3.11,0s1.14,1.21-1.8,1.28c.2.7,2,3,2,3.33,0,1-1.65,1.37-1.46,2.32.08.41,1.52,1.3,1.8,1.92a6.18,6.18,0,0,1,.16,3.71c-.29,1.12.14,1.08-.82,1.53-.1.92,2.68,2,1.41,3.81-.58.81-1.87-.29-2.16,1.2,0,.18.67.69.78,1.26.33,1.88-1.23,3.56-2.68,4.38a2,2,0,0,1,1,1.53c-1,0-2.12,0-1.63,1.3-1.83-1.6-1.48.56-1.87,1.44-.25.58.23.69-.33.91-1.06.39-2.18-1.31-3.45-1.24,1,1.09.74,4.19-1.28,3.54.65,2.47-2.44.48-3.46.5-1.33,0-1.22-.12-1.25,1.58-1.06-1.47-.83-.35-1.38.24-.77.8-.26,1-1.53,1.56-1.47.59-2.5.66-3.91,1.65a8.3,8.3,0,0,0-2.08,2.11c-.62.8-.18,1-1.25,1.3a3,3,0,0,1-2.47-.67c-1.16-.92.06-1.89-2.15-1.48.57,2.27-.18,1.65-2.35,1.68,1,2.22-.93,2.64-1,4.55,1.3-.09.85.81,1.38,1s1.16-.27,1.65,0c.78.38.76.68,1.43,1.1.24.15,1.53.86,1.84,1,1.34.72.23.43,1.61.83-.07,0,1.8.24,1.67.23.74.05,3.47-.48,3.16,1.1-.19,1-1.67.27-1.49,2,.24,2.29,3.68,1.71,3.36,4,1.38-.22,4,2.22,2.3,3.35,1.36.83.74,1.17,1.44,2.12.32.44,1.07.62,1.53,1.1-1.8.11-3.53,1.56-1.43,2.67,1,.54,2.16-.11,2.94,1.15.29.46-.11,4.14,1.19,3.76-.79-.27.92-.9.74-.75,1-.85,1.23-2.48,2.7-.44.45.62.25,1.43.8,2a9.24,9.24,0,0,0,2.21,1c1.23.61,2.37,1.32,2.29,2.87.86-.75,1.82-.65,2.7-1.18s.8-.82,1.34-1.58a23.19,23.19,0,0,1,2.82-3.49,16.19,16.19,0,0,1,1.91-1.82c2.18-1.43,1.19-2,.55-4.37,1.65-.48,2,1.76,1.74,2.91-.4,1.87-.77,1.41-.13,3.27a13.7,13.7,0,0,1,.47,1.75c1.11.81,1.71-2,3.26-1.82a.67.67,0,0,1,.28.87c.8.3,1.12.08.95-.66.53-.19.33-.67,1.36-.74-.38-1.19-.28-3,.57-3.71.32-.24,1.22.07,1.66-.13a10,10,0,0,0,1.31-1.28c.39-.46.9-1.63,1.41-1.86,1.53-.68,3,1.64,3.9,2.33-.26-1.39-1.28-2.35-1.72-3.65a24.89,24.89,0,0,1-.39-3c-.42-2-1.48-4.05-1.5-6,0-1,.27-1.4-.22-2.42-.31-.63-1-.8-1.13-1.37-.29-1,.69-4.6,2.09-4.22-1.51-.9-2.4-.21-3.73-.16s-1.38-.1-1.25-2c.06-.73,1.06-2.66.75-3.25s-2.33-1.46-3-2.09c-1-1-.43,1.44-1.13-1.18a5.81,5.81,0,0,1,0-2.72c.53-1.37,1.41-1.15,2.22-2.29,1-1.32,1.56-3.67.74-5.2s-2.2-1.36-3.75-1.72a7.16,7.16,0,0,1,3,.35c0,.06.12.12.16.14-.78-1.18-3-1.16-4.26-1.42a14.43,14.43,0,0,1-2.23-.45c-.87-.36-.31-.5-1-.92a12.07,12.07,0,0,1-2.6-1.45,17.36,17.36,0,0,1-2-2.52c-.3-1.06.84-3.62,1.37-4.89.31-.76.39-1.83,1.89-1.17,1.05.47.23,1.51,1.83,1.32a1.07,1.07,0,0,1-.68-1.25c1.78-.1.72-.09,1.55-1,.5-.57.85-.47,1.07-1.13.49-1.47-1.16-1.82.55-2.7a8.73,8.73,0,0,1,2.84-.24c2.37-.08,6.07.24,5.19-3.66-1.37-.27-.37,1.57-2.13.56-.85-.49-1.57-2.59-1.86-3.49-1.59,1.43-4.07,1.69-5.53-.32-1.11-1.54-.54-2.53-2.76-3.56-1.92-.9-3.74.3-3.38-2.57.09-.68.47-1.27.59-1.87.63-.08.76-.41.39-1a1.05,1.05,0,0,1-.28-1c.19-1.31,1.12-1.32,2-2s.82-1.2,1.39-1.72,2.08-1.34,1.87-2c-.31-1.09-.82-.3-1.45-.94-.84-.85-1.86-2.92.15-2.6-.39-.06,1.6,1.48,1.41,1.32.92.78.62.91,2.23,1-.53,2,.9.18,1.55,1.49.54,1.1-.78,1.92-.7,2.91a4.2,4.2,0,0,0,1.37-.08,7.65,7.65,0,0,0,.11,2c.22-1.31.29-4.3,1.44-2.2,1-2,1-.32,3.27-.51-.39-.52-2.57-2.9-2.2-3.59.54-1,2.45.21,2.9.76,1.45,1.8.53,3.8,2.86,5.32A8.59,8.59,0,0,0,378,213c1.72.21,1.61.1,2.31-1.08S380.84,208.32,381.85,207.45Z"/>
<path class="cls-5" d="M352,189.57c.45-.35.37-3.31.41-4a5.35,5.35,0,0,1,.84-3.16,15.45,15.45,0,0,0,1.41-3.55c.29-1.55-.79-1.87-.79-3.2a15.89,15.89,0,0,0,3.14-.29c.93-.27.61-1.53,1.51-.21.22.33,1.19-1.58,1.22-1.69a6.77,6.77,0,0,0,1.21.59c.1-1.62.82-1.63,1.85-1.57,0,0,.05.61.36.7.56.18.78-.33,1.45,0,1.74.77,1.9,3.76,1.95,4.94a8.26,8.26,0,0,1-.42,3.46,9,9,0,0,0-.85,2.58c0,1.87,1.78,2.13,2,3.53.29,1.62-1.38,1.4-1.34,2.72-.62-.36-.51-.34-.92-.22-.72.2-.21,0-.95-.08-.32,0-.61.35-.83.32s-.66-.43-.89-.44c-2.58-.07-1.14.49-2.71,1.67-1,.76-2.49,0-3.79-.16-1.77-.16-1.81.13-2.53-1.27C353,189.73,352.44,189.66,352,189.57Z"/>
<path class="cls-4" d="M349.7,299.66c-.2,3-3,1.53-4.82,1.85-2.65.45-6.17,3.41-7.13,5.88-1.13,2.93.93,5,1.81,7.52,1.12,3.23-2.67.94-2.76,4.23.82-.58,3.7-2.24,4.63-2a8.56,8.56,0,0,1-3.46,4c-1.13.78-3,1.44-2.68,3.21,1.74,0,1.21,1.63.12,2.56-.9.78-2.4.91-3.39,1.56-2.14,1.41-2.19,3.53-4,5.12-2.41,2.13-6.29,2.13-9.14,3.37a52.2,52.2,0,0,1-5.28,2.28c-.76.23-2.67,1.54-3.22,1.48-.1-1.93,1.12-1.4,2.45-2.44,1.93-1.51,1.3-3.43-1.08-2.85a11.51,11.51,0,0,0-4.35,3c-1,1.28-.39,3.06-1.79,3.82,2,0,1.88-2.95,3.57-2.42-.34.47-1.13.61-1.26,1.25,4.23-1.32.67,1.16-.84,2.44a24.39,24.39,0,0,0-3.24,2.66c-.87,1.07-1.22,2.45-2,3.53-.24.34-1.74,2-2,1.94-.77-.23.16-1.4-.28-1.79-1.13-1-3.93,1.37-1.91,1.87,0-.46-2.68.75-2.85.82.12-.05-1.12.77-1,.6a.63.63,0,0,0-.66.28,2.18,2.18,0,0,0,.61,1.46,4.68,4.68,0,0,1-4.64,2.3c-.9-.21-1.56-.82-2.51-1-.24-.05-1.23.11-1.5,0-1.58-.54-1-1-2.06-2.55-1.43-2.05-1.46-.13-2.74-1.68-.74-.9,0-2.23-1.7-2.13,0,.43.13,2.2-.29,2.36-.62.23-.4-.86-1,.06-.48-1.19-.51-.5-.92-1.08a8.43,8.43,0,0,0-.65,2.47c-.59-.71-1.51-1.24-2.32-.41-1.41,1.44.64.95.7,1.8.16,2.52-2.65,1.58-4.19,2.34-1.17.58-.25.81-.81,1.87-.42.78-1.64-.16-1.57,1.7,0,.87,1.52,1.66,1.55,2-1.21.05-.79,1.91-1.8,2.46-1.71.94-1.68-1.88-3.62-1.23-.72.24.15.86-.35,1.36-.19.19-2.88,2.14-2.88,2.14.19.06.36-1.63.28-2-.18-.84-.49-.82-.79-1.24-.49-.7-1-2.29-2.2-2.09.58-.1-2.46,2.23-2.28,1.94-.39.64.07,2.38.38,2.91a1.43,1.43,0,0,0,0,2.72c0,.37-.55.81-.52,1.42-1.21,0-.86,1.46-1.44,1.6s-1.15-1.19-1.87-1.49c-1.31-.54-2,.3-3,.86-.75.44-1.52.52-2.25.87-1,.49-.75,1-1.43,1.51s-2.13.49-3,.61c-1.32.19-2.8.39-4.22.55a13.09,13.09,0,0,1-1.93.3c-.75,0-1.17-.78-2.05-.58,1.06-.66,2-.57,3-1.38a7.28,7.28,0,0,0,2.15-2.59c.88-2.09.18-3.83,2.64-5,.72-.35,1.47-.07,2.18-.5,1.22-.74,1-3,2.13-3.69.9-.55,4-.65,1.16-2.87a7.34,7.34,0,0,0,1.78-.36c-.15.07.86-.89.77-.82.31-.23.79-.17,1.11-.49.64-.65.18-1.54.63-2.15.06-.09.57-.76.55-.72.07-.13.74,0,.78-.05.12-.24-.06-.65,0-.87.53-1.21-.44-3.66-.65-4.89s.08-2.7-.23-3.86c-.41-1.56-1.34-2.68-2.77-2.81.05-1.75,1.86-3.84.64-5.48-.59-.78-1.77-.17-1.76-1.53-2,.8-2.39-1.41-1.32-2.91.63-.89-.47-.84.95-.81.76,0,.65.36.56.88,1.68.12,5.06-.46,6,1.08.42.72-.58,2.63.9,2.85.59.09.76-.34.87-.37.28-.07.4-.91,1.52-1,2.42-.17.79.95,1.68,2,.6.73,2.09,0,2.57-.93a4.56,4.56,0,0,0,0-2.51c-.64-1.31-.94-.77-2.25-.79-3.17-.07-3.43-1-3-3.79a14.54,14.54,0,0,0,.58-3.62c-.14-1.33-.82-1.3-1.36-2.22-1.1-1.85-.55-5.79-.43-8.06,1.32.13,1.16,2.71,3.05.61,1.22-1.36.83-4,1.81-5.2.8-.95,4-.39,5.54-.36.87,0,3.75,1,4.33.71,1.81-.77.34-3.76,2.55-4.45.74-.23,1.8.49,2.17-.24s-.73-1.23-.83-1.78a4.78,4.78,0,0,1,.1-2.16c.25-.9,1-1.29,1.24-1.7a10.93,10.93,0,0,0,.46-1.76c-.1.24.91-1.65.59-1.16.22-.35,2.19-1.6,2.24-1.87.16-.85-1.65-1.59-1.57-2.53.11-1.26.61-.47,1.07-1.24s.17-1,.72-1.74c1-1.21,3.55-2.58,4.88-3.32,2-1.11,2.44-1.09,2.16-3.62,1.52-.06,2.07,2.22,3.38,2.87,2.48,1.23,3.63.32,5.88-.47,1.66-.59,3.37-.22,5.12-.49,1.52-.22,3.4-1.76,4.76-1.75.1,1.75.32,4.21-.3,5.56-.36.79-1.1,1.26-1.42,2.13,1.52,0,2.86,1.18,4.34,1.11,2.17-.1,2.61-2.37,4.94-2.32,1.65,0,3,1.2,4.63,1.42.88.12,1-.69,1.42,0,.14.25-.68,1-.92,1.24.79.19,2.65,1,3.31.48.41-.31.28-1.52.49-1.93s1-.43,1-.49c.38-1-.48-1.94-.45-3.07,0-.57.58-1.12.5-2a8.15,8.15,0,0,0-1.21-2.71,3.91,3.91,0,0,1,2.12.37,11.2,11.2,0,0,0,1.92.33c1.82.12,4,1.36,4,3.53,1.47.18,1.38-1.08,2.3-1.19a2.17,2.17,0,0,1,2.25,2.64c1.53-.37,1.33.78,2.28,1.44,1.14.79,2.83,0,3.47,1.53.53,1.3-.81,3.21,1.44,3.67.79.17,2.15-1.41,2.42-2.07,1,.11.73,1.86,1.17,2.44.61.79,1.72.86,2.56,1.27C348.8,297.62,349.8,298.21,349.7,299.66ZM246.13,374.87c.57-.21.66-.43.65-1.08C246.15,373.82,246.16,374.33,246.13,374.87Z"/>
<path class="cls-1" d="M98.76,428.48a2.22,2.22,0,0,0-.22-.91,8.55,8.55,0,0,1,1.87.77c-.06-.82.75-1.83.88-2.8.1-.7-.1-.77.25-1.12,0-.45-1.27-.83-.89-1.64.24-.52,1.76.15,1.66-.95-.09-.89-1.19-.67-1.39-1.19-.36-.94.83-1.86.14-2.84,1.22-.46-.38-2.09-1.18-2.43-.47-.2-1.36,0-1.9-.07a26.92,26.92,0,0,0-2.61-.78c.27.05-.78-1-1.17-1.14a11.23,11.23,0,0,0-4.33-.18c.85,1.87,1.24,4.77,4,4.51-.47,0-1.39,0-1.54.57-.23,1,2.13.47,2.48,1a4.31,4.31,0,0,0-1.82.17c1.06,2,1.25,4,1.9,5.64a17.81,17.81,0,0,0,1.57,2.28C97.37,428.54,96.85,428.56,98.76,428.48Z"/>
<path class="cls-3" d="M110.31,467.18c-1.86-1.42-.94-3-1.47-5.14a8.34,8.34,0,0,0-.86-2.33c-.25-.34-1.54-.71-1.48-1.13a2.08,2.08,0,0,1,.94-.49c.59,0,.76-.42.5-1.13.25-.93-.32-1.79-.38-2.66,0-.35-.18-1.05-.22-1.38s1.33-1.22-.6-1.05a9.64,9.64,0,0,0-1.09-4.72c-.43-.73-1.36-1.25-1.74-2-.6-1.16.19-.49,0-1.75a17.35,17.35,0,0,0-.29-2.57c-.23-.53-.73-.89-.92-1.51a2.86,2.86,0,0,1-.38-1.21,1.81,1.81,0,0,0,.56-1c-1.35.13-1.69-1.62-2.06-2.63-.59-1.6-.2-1.24-1.62-2-1.69-.83-4.67-2.09-.88-2.36a4.5,4.5,0,0,0-1.17-1l2.49-.09a1.83,1.83,0,0,1-.14-.57c1.76,1.19,1.52.13,1.91-1s1.55-3.28-.05-4.14c0,0,1.59-.68,1.63-.75.69-1.37-1-1.95-1.2-2.7-.64-2,1.52-2.46-.53-4.38a2.36,2.36,0,0,0-2.33-.95c-.06-1.54,3-1.74,3.92-1.46-.13-.31,0-.6-.21-.93,2.48.81.86-.11,1.56-1.33.47-.81,2.28-1.35,1.49-2.71-.36-.63-2-.35-1.88-1.07,1.74-.72,3,.58,2.58-1.94-.18-1-2-3.84-3-2.34-1-.77-.08-1.23-.07-1.49,0-.88.62-.43.22-1.71-.23-.73-1.27-.78-1.38-1.62,1.39.9,1.23.17,1.73,0-.63.21,1.41-.91,1.14-.63,0,0,.77-1.17.58-1.07,2.21-1.22,1.22.6,2.09,1.11s2.65-.4,3.64-.33c-1.58-1.23-1.09-1.47.41-2.08,1-.38,2.52-.66,3.23-1.37s0-1.56,1.15-1.43a5.5,5.5,0,0,0,0-1.81c2.13-.1,2.41,1,4,1.6,1.26.48,2.88,0,2.39-1.6,2-.53,5.74,1.53,5.79-1.05.88-.06,1.44,2.12,2.45.08.42-.86-.7-2.37-.63-3.08s.66-1,.7-1.44c.08-.93-.36-1.07-.47-1.86a23.51,23.51,0,0,1,0-3.45c.88,0,1.24,1.11,2,1.39s1.57-.17,2.15.13c1.51.78.72,1.83,2.83,1.94,1.79.09,1.71-.32,3.09-.15a10.76,10.76,0,0,1,4.36,1.74,13.87,13.87,0,0,0,.38-2.09,19.31,19.31,0,0,1-.85-1.85c-.12-.74.28-1.37,0-2.29.33.07,1.17.48,1.4.37,1.45-.67.35-.44.93-1.33.9-1.35,1.47-2,3.31-1.33,1.31.48.19,1.06,1.69.58-.25.08.47-1.1.35-1,.66-.61,1.12-.63,1.52-1.44.15-.31-.92-.78-.9-1.24.78.36,3.13.37,2.92-.63.66.05.28.08.48-.39.55-.1.45.05.35-.91,1.27-.05,1.25-2,.18-2.45.78-1.54,2.45,0,3.56-.37.72-.24.53-.73,1-1a14,14,0,0,0,1.93-1.41c.28-.26,1.18-1.58,1.31-1.62,1.77-.54,1.2.83,1.29,1.12-.08-.26-.46.18-.4.4.23,1,1.41.45,1.21,1.65.68,0,1.37,0,2.06,0-.14.77.4,1.77.32,2.28-.18,1.24-.63,1.21-.61,2.6,0,1.13.19,4-2.07,3.49.78,2.44-3.24,3.08-2.61,4.89.41,1.16,4.8.3,5.52,1.2-1.37-.09-3,1.51-3.76,2.45-.47.56-2.92,3.1-2.86,3.61.12,1.1,1.41.64,1.71,1.11.41.66.06.1.18,1.26a10.18,10.18,0,0,1-.49,2.37,8.08,8.08,0,0,0,.07,2.73c-1.87,0-.54,1.39-1,2.86,1.67-.07.21,1.56-.42,2s-4.13.4-3.34,2.22c.34.77,6.23,1.82,7.14,1.84-.1.94-1.21.18-1.57.54a3.07,3.07,0,0,0-.6,1.56c-.42,1.84,0,3.91,0,5.79-2.42,0-6.34-1.7-8.31.36a2.9,2.9,0,0,0-.74,1.43c-.43,1.7.88,2,1,3.34-2.14.1-2.06,4.17-1.11,5.56.83,1.22,1.4.66,1.69,2.41.14.87,0,3.16-1,3.72-.69.41-1.59-.25-2.36-.3-2-.12-1.82.1-3.39-1.66-.27.82-2.34,3.73.51,3.53a15.74,15.74,0,0,1-.92,3.53c-.16,2.12-.94,2.7.47,4.59.5.67.77,1.82,2.3,1.49a2.35,2.35,0,0,0-1.08,1.46,4.44,4.44,0,0,0,.8,1.63c.78,1.22.19.94,1.85,1.32.51.11,1.54.88,2.26.33.26-.21-.15-1.25.13-1.48.77-.64,1.85.27,2.69-.25.13,1.22.18,1,1.19,1.55,1.85.94.88.15,1-1.57.61.14.7,2.09,1.71,2.44,0,.34-.93,0-1.07.13-.84.76-1.13-.17-1.67,1.28a2.58,2.58,0,0,0,.12,2.22c-.33-.52,2.44,1.69,1.08,1.25-.91-.3-1.36-1.68-2.65-2s-1.45.27-2.07.56c-.1-1.22-1.4-1.41-2-2s-1.94-3.16-3.32-2.19a1.16,1.16,0,0,0-.25,1.47c.14.23.61-.12.8.24a4,4,0,0,1,.82.36,4.52,4.52,0,0,0-.11.75c.74.85,1.73,1.91,1.43,3-.13.48-2.1,1.21-1.07,2.65.29.41,2.14.45,2.55.29,1.47-.59.73-1.44.82-2.87.46,0,1.2.92,1.68,1.11.67.26,1.52.05,2.15.33,1.33.59.3.66,1.18,2,1,1.5,1,.23,2.1-.13,1.94-.67,2.47.28,4-.75.95-.63,2.08-1.21,1.78-2.46,1.25-.09,1.14.78,2.24.55-.89,1.93.21,1.5,1.14,1.34.12,0,1-1,1.65-.27s-.6,2.76-.6,2.75c0,.6-.5.69.18,1.25.25.21.87-.33,1.16-.08s.22.63.43.84-.35.86.15,1.17.8-.26.87-.26c1.77,0,2.31-1.24,2.6,1,.17,1.25-.38,3.33.64,4,.73.45,2.52-.63,3.2.1.51.54-.26,2.45-.46,2.89-.29.63-.23.83-.53,1.18s-.9.18-1.21.63.52,3.1,0,3.23c-.71,0-1-1.72-2.08-1.72-1.19,0-1.8,1.16-.51,1.75-1.3.2-1.51,1.15-1.34,2.34-.8-.32-1.61-.78-2.34-1.09-.56-.24-.63-.73-1.39-.67-.3,0-.38.89-.7.89-.83,0-2.76-2.1-4.12-.82-.65.61-.14,2.2-.67,2.91-.93,1.24-2.46.11-3.3.85s-.15,2.67-.59,3.87c1.28-.2,1,1.3.52,2.18A9.53,9.53,0,0,1,161.2,484c1.55,2.1,6.33-.27,5.6,3.45s-5.44,1.2-5.77,5.89c-1.71-.23-5.71-2.39-6.37.07-1.11-.93-1.36-1.51-3-1s-1.51,1.7-2.33,2.88c-.62.91-.06.68-1.66.78a10.35,10.35,0,0,0-3.18.34c-.1-1.57-.32-1.19-1.31-1.89l-1.15.07-.12-.58c-.63-.31-1.36-.58-2.05-.89-1.55-.69-2.6-2.83-4.43-2.59,0-3.42-1.53-.42-4-1.41-1.29-.51-.81-.59-1.49-1.43s-.47-.76-1.26-1.29c-.3-.2-1.07-.08-1.51-.31a11.53,11.53,0,0,1-1.71-1.35c-.83-.93-1.27-2.08-2.39-2.92-.92-.69-.69.21-1.28-.93-.4-.78,0-1.22,0-1.75,0-.3.77-.72.47-1.21a1,1,0,0,0-1.59.15c-.51-1.07-1.13-1.41-1-2.73-.41.22-.76.13-1.2.53,0-.59-.31-.44-.91-.45.79-1-1.78-2.81-2.35-1-.3-.23-.43-2.27-1-2.56a1.77,1.77,0,0,0-1.4.06c.13.05.4.16.13.24C110.76,472.83,109.21,467.83,110.31,467.18Z"/>
<path class="cls-7" d="M148.69,558c-1-1.24-5.05-4.47-4.88-6.32,2.26-.06-1.47-.65-1.42-1.68h.72c-1.11-.67.48-.74.88-1.14a1.27,1.27,0,0,0-2.29.18c-.56-.89-.78-1.28.16-1.69,0-1.44-.83-.31-1-.06a40.29,40.29,0,0,1-3-9.14c-.38-1.63-.26-3.32-.54-5s-1.17-3.25-1.17-4.89c0,.51,1.2,2.07,1.41,2.66.28.85.84,2.33,1,3,.44,1.92-.85,4.18,2.72,4,.25-1.58-1.26-.9-1.32-1a5.3,5.3,0,0,1-.47-2.06,16.6,16.6,0,0,0-.85-4.38c-.6-1.28-2.27-2.06-2.75-3.45-.12-.33-.47-2.74.2-2.55,0,.31.69.61.94.57-.55.09-.84-1.75-1.2-2-.21,2.72.1-.16-.78,1.15,0-2.21-1.75-4.1-2-6.23.53-.16.28.82,1.21.74-.9-1.22-1.08-1-1.93-1.86-.34-.36-2.16-3.44-.42-2.57-.33-.42-.23-1.17-.61-1.76a7.23,7.23,0,0,0-.43,1.52c-.64-1.45-.82-3.72-1.2-5.32a17.08,17.08,0,0,1-.81-3.18c0-.45.58-1.23.54-1.48a1,1,0,0,0-1.15.21c-.21-1.62-1.46-3,.1-3.09-.11.85-2.32-1.91-2.33-1.92-.55-.81-1.23-1-1.51-2.34,1.22-.07-.55-1.17-.35-2.38.16-.95,2.11-1.11.21-2-1.25-.59-2.12.1-3.39-.95-.88-.72-2.68-2.12-.82-2.29-.27-.2-2-.87-1.91-1.2.27-.05.34-.2.22-.44-.63-.67-1.38.17-1.93-.68-.44-.68-.67-2.58-1-3.48-.74-1.89-1.18-3.87-1.76-5.79-.52-1.74-1.67-3-2.27-4.68a3.22,3.22,0,0,0,2.1-.41,6.56,6.56,0,0,1,0,1.33c.13,0,.88-.44.85,0-.66.75.29,1.09,1.14,1.23.34.06,0-.91,1.22-.17-.38-.24-.08,1.1,0,1.2-.72-1.13,2,1.16.83.66.65.28.77-.07,1.22-.45a2.22,2.22,0,0,1-.22,1c.86.13.89,1.21,1.38,1.35.77.21,1.05-.54,1.43-.44-.44,1.26-.6.62-.53,2.06a5,5,0,0,0,0,1.34c1,1.35,3.59,1,3.18,3.63,1.2-.17,1.59.89,2.5,1.39s1.78.38,2.45,1.06c1,1,.77,1.9,2.63,2.19a7,7,0,0,0,2.91-.44c0,.63,0,1.27,0,1.91,1.65-.55,2.66,1.51,3.24,1.17.6.35.83.89,1.49,1.22.23.12.72-.08.92.06.6.42.8.21.8.89,0,2.15-2.42,1.65-3.67,1.22-.16.7-.65,3-.2,3.54.3.38.39,0,.86.26,1.31.82,3.82.71,4.9,2.14a8.28,8.28,0,0,0-1.81,2.83c.26,1.1,3,0,4,.29a1.78,1.78,0,0,1,1.4,2.46c-.15.45-.61.22-.67.37-.3.77-.33,2-.65,2.94a6.4,6.4,0,0,1,3.7,1.49c1.11,1.34.12,4-.18,5.36-.35,1.6-.75,3.43,0,5a6.32,6.32,0,0,0,2.12,2.2c1.73.42,2.64-3.26,4.93-2.5,1.15.39,1.72,4.1-.14,3.74a4.69,4.69,0,0,0,.2,1.77c.1.17.88.3.93.46.3,1.08-.64,2.14-.88,3.64-.06.35-.16,1-.23,1.48a14.54,14.54,0,0,0-.68,2.78,2.52,2.52,0,0,0,2.08,1.61c1.12.27.36-.63,1.23-.75.06.64.76,1.15.73,1.71,0,.19-1.13,2.83-1.32,3.18s-.82.63-1.08,1.21,0,1.5-.17,2.14c-.26,1-1.3,1.39-1.56,2-.71,1.64.55,1.68,1.14,3.1.71,1.68-.43,1.53-1.07,2.89-.53,1.11,1.81,4.46,1.14,5-.21.12-.91-.16-1.14-.32.24,1.22-.78,2.85-1,3.73C151.19,562.64,150.31,560,148.69,558Z"/>
<path class="cls-7" d="M199,544.79c-2.14-2-7.24-1.89-9.94-1.45a12.56,12.56,0,0,0-3.54,1.27,19.89,19.89,0,0,1-4.21,1.34c-2,.4-2.66,1.15-4.32,2.14-1,.6-1.62.85-2,2-.54,1.62.16,2.95-.71,4.54-.59,1.09-.17.79-1,1.31-.37.25-1.53-.42-1.59.49,1.61.13,2.49-.66,2.19,1.34a8.28,8.28,0,0,1-2.15,3.45c-.94.85-2.27.76-3.21,1.38s-1.27,1.6-2.22,2.19-2.36.42-3.37.93c-.64.32-.3.74-1.24,1-2.55.82-7.56-1.85-8.81-4,2.38-.62,2.67-1.66,2.7-3.74,2.66.63.33-3.18.16-3.9-.51-2.18,2.26-2.5,1.18-5-.13-.31-1-.69-1.25-1.17-.71-1.41-.08-.52.36-1.4a11.11,11.11,0,0,0,.94-1.73c.22-.7-.05-1.75.26-2.39s.39-.89,1.17-.66c-.23-1.76,1.31-3.07,1.26-4.49-.05-1.64-.94-1.58-1.9-1.71-.79-.1-.33,1.15-1.51.13-.67-.56-.32-1.83-.08-2.77.14-.5.63-.42.69-.83s-.21-1.2-.18-1.56a14.92,14.92,0,0,1,.56-1.78c.05-.17.49-.26.52-.44.13-.89-.74-1.15-.86-1.68,0-.24-.59-.28-.54-.76,0-.23.71-.35.84-.77a4.92,4.92,0,0,0,.24-2.26c-.28-1.56-1.11-2.6-2.78-2.15a5.12,5.12,0,0,0-1.81,1.13s-1.82,1.57-1.41,1.5c-.27-.95-1.5-1-2-1.66a6.25,6.25,0,0,1-.47-3.21c.14-1.59.86-3,1-4.46.32-2.95-1-3-2.89-4.43-.86-.64-1.37-.65-.95-2a2.41,2.41,0,0,1,1,0c.1-4.07-1.2-4.42-5.15-4.15.1-.13,1.65-2.07,1.65-2.1-.06-1.31-.76-.86-1.53-1.44a6.91,6.91,0,0,0-2.36-1.33c-1.85-.57-2.21-.44-1.89-2.67,1.83,1,1.94.39,3-.62.45-.42,1.18-1.69,2.2-1,.74.49,0,1.24.8,1.23,0,.23,0,.46,0,.7a13.23,13.23,0,0,1,3.51-.41c3.54,0,1.19-1.72,3.47-3.39,1.1-.81,1.84-.23,2.76.06,1.12.34.86.39,1.51.27.06,0,.13-.54.43-.64a4.51,4.51,0,0,1,1.9.07c.83.09,1.66.45,2.47.58,3.06.48.34-.75,2.35-2.64,1-1,2.62-.05,3.49-.7.25-.18.15-.36.34-.52a15.26,15.26,0,0,0,1.17-2.11,3.67,3.67,0,0,0-.24-2.65c-1.13-1.37-3.59-.2-4.91-1,1.63-1.46,2.86-1.88,2.73-4.36,0-.64.1-.91-.5-1a12.73,12.73,0,0,0,0-2.47c1.16,0,2.64.06,3.44-.95.51-.64.14-2.51.7-2.92,1.73-1.28,3.51,2.91,4.59,0a18.14,18.14,0,0,1,3.16,1.84c.75.56.88,1.78,2.17,2.28,1.82.71,3.14-.34,4.3-1.84a25.38,25.38,0,0,0,1.85-2.21c.37-1-.51-3-.14-3.58.66-1.09,4.28-1.38,5.42-1.2,1.45.24,2.15,1.59,3.57,1.63s1.45-1.12,2.59-1a2.53,2.53,0,0,1,.16-1.13c1.35.86,1.9.16,2.72-1.13l.77-1c.45-.59,0-1.16,1-1.51a4.38,4.38,0,0,1-1.44-.49c1.75-1,3,.39,2.87,1.93.65,0,1.69-1.27,1.59-1.27.81-.27.49,2.91,2.67,1.89.53-.25.19-.52.48-.7.05,0,.22-.66.42-.8.41-.29,1,.08,1.42-.14,1.13-.64.26-1.11,1.13-2.46,1.16-1.82,1.53-.56,1.61-3,1.08,0,.29,1.09,1.86,1.2.64.05.49-.93,1.75-.22a2,2,0,0,1,.66.55,7.53,7.53,0,0,1,1.75,4.52c.16,2-.48,3.16-1.07,5-.52,1.62-.22,3.31-.62,5a12.06,12.06,0,0,1-1.36,3.6c-.94,1.3-1.05.82-2.48.82,2.81.29.56,3.35-.38,4.39a19,19,0,0,0-2.07,2.27c-.3.46,0,1.38-.77,1.41-.19,0-1.15-1.54-1.21.2,0,.19,1.37.47.65,1.82a1.19,1.19,0,0,1-1.64.68c.24.11-.82-2.89-1.3-.8-.11-.7-1.41-.71-1.81-.34a16.49,16.49,0,0,0,.12,2.22c-.79.05-1.29.3-1.41,1.1,1,0,1.92.37,1.45,1.31,1.18.34,2.66,1.2,3.23,1,.17.06,0,.2.32.08-.1,2.38-.43,3.78.25,6,.8,2.63.51,5.77.56,8.55-1.72-1-1.86.79-2.92.84-.25,1.78,1.69,2,2.55,3,1.29,1.54,1.94,8.78.69,10.87a3.54,3.54,0,0,0-2.82-2c-.57-.08-4.45.15-4.2.79,1.34-.61,5.65-.52,6.47,1-2.59.18-7.7-2-9.86-.14a5.87,5.87,0,0,0-1.46,2.65,7,7,0,0,0-.12,1.44c0,.53.62,0,.79.5,0,.05-3.44,4-3.73,4.44-1.1,1.74-2.77,3.3-3.31,5.37-.72,2.8.67,3.31,3,4.34a5.78,5.78,0,0,0,3.18.47,8.2,8.2,0,0,1,2-.35c0,.66-.14,1.54.56,1.93C199.29,544.07,199.38,544.33,199,544.79Z"/>
<path class="cls-7" d="M255.54,395.55c.6,0-.34-2.83-.27-3.07,2.1.41.9,2.41.56,3.47A.37.37,0,0,1,255.54,395.55Zm43.37-44.65c0-.16,0-.32,0-.48a2,2,0,0,0-1.29.44c.12.46,1.75.16.27,1.46-.46.41-1.38-.05-1.92.18-.79.33-1.08,1.45-2,1.31a11.42,11.42,0,0,0,1.11,1.57c-1.17-.11-2.91,1.19-2.77,2.35-2.54.26-4-.58-6.4-.88-1.05-.14-1.73.35-2.54-.57a30.05,30.05,0,0,1-1.53-3.29c-1.18.32-2,.36-2.57-1.75-.13,2-1.67.93-1.93,2.67-.15-.47-.44-1-.63-1.41a6.81,6.81,0,0,0-.21,2.5c-.93-.41-1.82-2.17-2.82-1.07.25.2,2.08,1.17,1.63,1.62-.86.58-1.18,1.57-2.18,2.06a6.24,6.24,0,0,1-3.22.4c0,.46.13,1.28-.19,1.67s-1.18.11-1.34.7c-.37,1.4,1.49,1.51,1.4,3,0,.55-.78.05-.81.29a3.2,3.2,0,0,0,.33,1.75c-1.11-.06-1.62,1-2.62,1-1.26-.05-1.3-1.61-2.59-1.57,0,.42.12,1.18-.14,1.4s-.81-.09-1,.11c-.46.47-.78,1.19-1.38,1.49-1,.5-1.72.74-2-.68-.07-.33.78-.6.93-.92-1-.54-.93-2.53-2.35-3.13-.53.83-1.86,1.42-2,2.08a4.07,4.07,0,0,0,.38,1.32c0-.06.18.16.18.25,0,.78-.78.82-.82,1.21-.15,1.42.84,1.24.34,2.69-.11.35,0,1-.26,1.27s-.78-.13-.89,0-.24,1-.42,1.13c-1.94,1-1.36-.52-2.81-1s-2.54.78-3.38,1.56a2.41,2.41,0,0,1-1,.18,1.63,1.63,0,0,1-.39,1.35c-.37.33-1,.28-1.27.5-.58.4-1.24.79-1.85,1.22-2.14,1.54-1.4,4-2.41,6-1.1,2.21-3.6,1-5.27,2.55a2.34,2.34,0,0,0-.92.22c0,.34.09.67.16,1-.54.5-.66.34-1.3.64-.93.43-2.81.77-3.72.28-.14.77-1,.82-1.16,1.31-.25.72,1.11,1.41-.29,1.93-.5.19-2.48-.56-3-.8-.11-.05-.43.22-.59.14-.34-.16-.37-.88-.59-.94-.42-.12-1-.53-1.39-.35s-.36,1.19-.8,1.52c-1.28,1-1.15,0-2.28-.45.44,1.37-.55,1.08.94,1.76.81.37,2.12.1,2.78,1a1.92,1.92,0,0,1-1.53,3.13c-1.31,0-2.9-1.25-3.65-2.2-.39-.49-.6-1.27-.92-1.65s-1.18-.36-1.57-1.19c-.6.48-1.53.62-2.07,1.12a15.24,15.24,0,0,0-.87,1.4c1.61.24.89.16,1.15,1.23a2.46,2.46,0,0,1-.64,2.83,5,5,0,0,1-2.75,1.44c-.88-.07-.39-.71-.85-1s-1.62.39-1.77-.85c-.62.27-1,1-1.68,1.34-.48.24-.75-.18-1.1-.07s-1.38.85-1.89,1.08l-1-.14c-.27.25-.52.51-.78.78-1.06.18-1.72-.13-2.52.53s-.81,2.5-1,3.2-.39,1.92-1.41,2.39c-1.73.78-1.65-.95-3.37-.74-3,.38-.07,6.22-3.29,3.21,0,1.63-1.3,1.69-2.57,1.36s-2.41-.94-3.85-.8c-.54.06-1.31.31-2,.35a9.88,9.88,0,0,0-2.38.11c-.47.77.85,1.76-.32,2.91.41-.4-2.41.8-1.9.77-.72,0-1.38-.57-1.92-.62-.75-.08-2.48,1.16-2.64-.5-.89.36-1.19.85-2.19.87a8.64,8.64,0,0,1-2.25-.69c-.23-.06-.4-.47-.64-.52-.87-.16-2,.51-3.13.22,0,3.14-7.44-1.58-9,2.09a2.84,2.84,0,0,0-.22,1.29c.13.58.87.75,1,1a1.65,1.65,0,0,1-.3,1.85c0,.09-.66.17-.82.39a4.26,4.26,0,0,0-.29,1.81,4.4,4.4,0,0,0,.48,2.44c.58.87,1.26.65,1.66,2a6,6,0,0,1-.45,3.94c-.86,1.48-1.35.93-2.53.95-1.59,0-3,.42-4.15-1.15-1,2,.61.81,1,1.67s-.35,3.19-.38,4.3c-1.26-.24-1.25,2.47-1,3.25a5.89,5.89,0,0,0,1.78,1.84c.62.35,1.23-.5,1.71.32s-2.45,2.28-.59,2.22c0,.55-.2,1.5.18,1.93-.17-.19,2.39.17,2,.32.51-.22.27-.3.56-.47.52-.3.05-.89,1.07-1.29.44-.17,1.54.11,2,.05,0,0,1-.7,1.09-.74,0,1.41.13,1.39.91,2.26a5.9,5.9,0,0,1,0-2.13,7.49,7.49,0,0,1,1.65,1.86c.51.62,1.81,1.28,1.19,2.31-.84,1.39-2.26-.68-2.65,1.46-.32,1.79,1.36.86,1.56,2.44a1.33,1.33,0,0,1-1.61,1.29c-.69-.13-.46-.89-.9-1.15-1.07-.66-1-1-2.44-1-.45,0-.36.91-1.19.53-.35-.16-.8-1.11-1-1.38-.08-.1-1-.92-1.23-1.14-.8-.76-.89-1.54-2.2-1.64,0,.57,1.32.46,1.59.86s-.3,1.12-.11,1.52c.36.74,1.57.74,1.74,1.8.26,1.57-1.4,1.5-1.39,3.1a6.18,6.18,0,0,0,2.23.06c.5-3-1-3.06,2.4-1.66.86.35,2.93-.09,3.43.55s-.48,1.76.65,2c0-.81,2.83-.65,3.25-.74,1.07-.25,4.42-1.52,2.17-2.76.89-.09,2.84-.53,3.35.36,0-.46.17-1.6,1.18-.77.63.51-.2,1.59-.35,2.31.29-.73,1.78-.92,2.38-.53,1.28.81.2,2.11.58,3.27.43,1.33,1.59.55,1.23,2.4a2.31,2.31,0,0,1,3.67,1.25c.17.78-.45,2.19-.09,3,.61,1.3.86.52,2.33.8,3.46.66.35,3.81.95,5.54-3.31-.25-.24,2.3-1.61,3.59s-1.9-1.81-3.28-1.2c.33,1,1.78-.29,1.33,1.24-.17.58-1.54.29-2,1-.84,1.33.67,3.48,2.1,3.62s2.6-1.68,3.44-2.71c1.2-1.46.92-2,1-3.58.11-2,.82-2.12,2.91-2.58a8.54,8.54,0,0,1,5.25.25c.74.31,2.91,2.22,2.65,0,1.44.5,1-1.87,2.62-.41.45-1,1.44-1.16,1.8-1.76s-.22-1.58-.19-1.79c.13-1.09.21-1.36,1.7-1.3,1.28.05,2.23.38,2.29,1.79.16-.07.32-1,.64-1,1,.18,1,1,1.68,1.31,1.4.71.29.12,1.29-.42a4.24,4.24,0,0,1,2.36-.71c-.55-1.17-.09-.9.32-1.78a12.9,12.9,0,0,1,.75-1.37,1.05,1.05,0,0,1,.92-.49c0-.34,0-.68,0-1,.55-.63-.58-1.13,1.07-.79.73.15.95.6,1,1.27,1.37-.15-.24-1.38,1.31-.8-.26-.37-1-6.73-.3-6.27.48.31,1.27,3.95,1.5,4.64.42,1.3.33,2.38,1.63,2.92,0,0-.45-3.05-.5-3.41-.21-1.67-.55-3.29-.74-5-.16-1.47-.44-2.95-.74-4.4-.1-.48-1.07-4.07-1.62-2.11-.3-.91.88-.78,1.17-1.19a12,12,0,0,0,1.15-2.19,11,11,0,0,0-.21-5.65c-.65-2.33-1.68-4.43-1.82-6.91-.12-2.17.62-3.8,1.28-5.77s1.76-3.33,2.71-5.17c.48-.93.64-2.1,1.47-2.84s1.57-.39,2.54-.88c1.34-.68,2.33-2.11,4.14-1.6,1.4.4,1,.57,1.36,1.92.11.39-.37,1.74.56,1.49a1,1,0,0,1,.59-1.25c0,.46-.05.91-.08,1.37,1,.08.77-1.75.83-2.31.23.35,2,2.8,1.48.84a.63.63,0,0,0,.84.31c-1.75-.5,1.14-2.65,1.38-2.89,1-1,1.29-2.31,2-3.45.51-.84.7-1.67,1.14-2.48.89-1.65,2.41-1.23,4.24-1.84.17-1.59-3.28.14-3.59.11.39-1.76,7.32-.8,7.44.57,0-.49,0-1,0-1.47.67.1.44,1.22.47,1.61,2.34.41,4.56-1.79,6.43-2.75.86-.44,2.1-.44,2.79-1.19s.45-1.81,1.06-2.32c0,.67.13,2.33.55.92.18-.59-.22-1.31-.11-1.93-1.39.18-2-.49-1.74-1.72.09-.4.73-.68.91-1.08s.17-1.66.36-2.26c1-3,4.65-3.84,6.86-6a11.52,11.52,0,0,1,3.31-2.69c1.91-.93,4.39-1.32,6-2.61,2.86-2.27,3.63-5.75,6.84-8,2.73-1.93,6-3.25,8.62-5.22.12-.09,1.53-1.48,1.58-1.57.22-.36.37-1.08.56-1.33s.3-.93.65-1.37c.17-.21,1.66-1.08,1.93-1.28,2.15-1.61,3.21-3.77,4.84-5.95.84-1.12,2-1.81,2.92-2.88C300.67,351.81,298.6,352.74,298.91,350.9Zm-43.77,45.33c-1.61-.09-.92,1.45.26.84A.86.86,0,0,0,255.14,396.23Z"/>
<path class="cls-3" d="M430.46,243.33a6.18,6.18,0,0,0,0,1.14l.69-.13a.32.32,0,0,1-.41.33c.68.35,1.07,3.91,1.11,4.7a8.58,8.58,0,0,1-.46,3.37c-.31.57-1.3.26-1.46,1.35-.64-1.5-.62-.45-1.31-.19a3.4,3.4,0,0,0-.68,1.2l-.57-.1c-.47.31-.81-.22-1.27.2-.31.29-.4,2-.48,2.59-.13.89.25,1.23-.13,1.95-.19.35-1.27,0-1.58.46-1,1.51,1,3.49.86,5.06-.08.68-1.94,4.14-2.87,4.23-.7.06-2.56-2.34-2.85-2.95-.53-1.07-.06-3.05-1.22-3.76-1.7-1-.81,1.85-.7,2.68s.85,3.77-1.11,2.93c-.76-.32-1.26-4.42-1.5-5.18-.66-2.16-.38-3.41-1.63-5.39-1.08-1.7-1.33-2.34-.67-4.37.45-1.4.77-3.4,1.35-4.71.91-2,2.15-1.53,3.93-2,2.81-.73,3.57-4.41,6.3-1.8,1.09-.93,1.31-2.42,2.47-3.38a9.82,9.82,0,0,1,1.2-.63c.26-.16.45-.79.86-1.2a14.26,14.26,0,0,1-.1,3.86Z"/>
<path class="cls-3" d="M443.63,239.84c1.09,1,.06,2,.66,2.93.49.73,4.22,1.44,5.28,1.65-.8.46,2.22,6,2.48,6.71a21.25,21.25,0,0,1,1.1,8.85c-.16,2.15-.57,5.7-2.75,6.31-.52.14-2.42-.33-2.68,0-.53.67.42,2.6,1.4,2.12-.06,1.88-.35,4.6.33,6.39.44,1.16,1.41,1.94,1.55,3.06.06.4-.09,2.69-.49,3.1-.82.83-1.4.09-2.32,1.13-.58.65-.86,3.1-1.66,3.67-1.82,1.29-2.55-1.64-3.39-2.5-3-3.07-.84,3.41-3,1-1.49-1.65-.8-4.74-1.17-6.73a30.93,30.93,0,0,0-1.92-5.34c-.74-1.92-1.89-3.5-2.49-5.46-.67-2.15-.16-3.92-.36-6.09-.17-1.73-.66-1.17-1.21-2.54-.35-.87.09-1.46-.06-2.33-.29-1.76-.83-2.58-.59-4.42a15.46,15.46,0,0,0-.34-5.18c-.25-1.3-1.68-2.87,0-3.1,0,1.27-.26,1.68.67,2s2.2-.44,2.8-1.06a10,10,0,0,0,.81-1.46c.11-.16.9,0,1-.12s-.23-1.55-.13-1.6c.75-.6,1.25-.79,1.47-1.79.95,1.08,1.14,1.47,2.65.36A2.4,2.4,0,0,1,443.63,239.84Z"/>
<path class="cls-3" d="M452.88,222.1c1.2-.14,1.49-.54,2.22-1.52a21.24,21.24,0,0,0,1.92-3.77c.69-1.35.3-1.25,2-1.39,2.19-.19,5.06.85,7.1-.07s.81-3.72,3.58-3.67c0,1.67-.33,3.53,1.57,4.33-.92.52-1.58,4.32-.89,5.2,1.59,2,3.08-.89,3.29,2.43.17,2.7-1.49,4.43-2.77,6.63a52.82,52.82,0,0,0-2.58,5.16,31.53,31.53,0,0,0-2.1,6.58c-.15.8-.43,5.68-1.59,6-.65.17-1.32-1.58-1.55-1.74a10.51,10.51,0,0,0-2.95-.83c-1,0-.29,1-1.61.75-.8-.13-1.28-1.38-2.08-1.65-.05,1.72-3.08,1.61-4,1.26s-1-1-1.48-1.35c-1.38-.91-3.08-1-4.62-1.8-1.22-.63-.82-.15-1.29-1.13s.24-1.76-1.18-2.33c.89-.44,1.21-4.39,1.27-5.42s-.11-2.15.42-2.68,1,.12,1.6-.88.62-3.17.94-4.06c.5-1.36.37-3.16,1.65-4.07C450.56,221.14,451.82,222.21,452.88,222.1Z"/>
<path class="cls-3" d="M467.55,194.89a10.85,10.85,0,0,1,3.45.27,23.48,23.48,0,0,1,5.75,2.61l.09.87a2.69,2.69,0,0,1,.75,0,4.48,4.48,0,0,1,.48,2.27,10.06,10.06,0,0,1-1.24,4.58c-.77,1.36-2,2.48-2.33,4.2s.63,3-.45,4.6-2.87,1.67-3.71-.4c-.33-.82.52-2.55-.25-2.91s-2.57.46-3,1.05c-1,1.53.41,2.24-1.95,2.78-2.09.48-7.09-1.33-8.55.61-.77,1-2.52,9.07-5.57,5.41-.67-.8-.05-2-.38-2.86-.59-1.63-1.47-.92-2.15-2.14,1.1-.56,1.64-.69,2.18-1.69.73-1.33.35-1.4,1.4-2.47.61-.62,1.45-.89,2-1.71,1.35,1.79,4.06.4,4.55-1.36.22-.82-.39-1.69-.23-2.37.05-.24.53-.37.55-.64.12-1.45.05-2.82,1-4.2s1.91-1.62,2.13-3.6c.8,2.08,3.45-.51,3.74-1.68C466.23,194.58,465.91,195.08,467.55,194.89Z"/>
<path class="cls-3" d="M432.4,226.27l.66.47c-1.07.8-1.47,2-3.23,1.32-.48-.17-.94-1.07-1.55-1.34a5.09,5.09,0,0,0-2.12-.31c-.51,0-7.85,2.1-7.49.59-.25,1-2.8.43-3.56.34a14.49,14.49,0,0,0-3.76-.15c-1.67.14-3.27-.26-5-.15-2.11.13-4.19.15-6.31.34a21,21,0,0,1-9.46-1.51c-1.23-.45-2.92.13-3.95-.38-1.39-.69-1.21-3.19-1.16-4.45.48.75,2.65.56,3.23,0,1.44-1.44-.29-2.79-.31-4.21a2.55,2.55,0,0,1,1.28-1.89c.54-.22,1.41.05,2,0,1.23-.17,1.88-1,2.81-1.25,2.69-.87,5.55.38,8.37.17a9,9,0,0,1,4.08.64c.73.39,1.35,2.64,2.7,1.11a2.18,2.18,0,0,0,3,1.78s1.06-1.34,1.17-1.47c1.08-1.29,2.57-1.28,4.43-1.81-.09-.1-1.35-1.75-1.54-1.66,2-1.72,2.11,1.29,2.74,3,.58-1.42,2.05-3.74,1.85-5.27a11.58,11.58,0,0,0,3.29.51c.54,0,1.24-.38,1.92-.42-.27.46-.41,1-.7,1.44,2.48.42,1.07,3,1.15,5,1.66,0,3-1.34,4.56-1.23a5.77,5.77,0,0,1,3.44,2.31c.32.83-.24,1.61.36,2.52.48.72,2.38,1.09,2.63,1.75.47,1.25-3.17,3.4-4.35,3.83A7.08,7.08,0,0,0,432.4,226.27Z"/>
<path class="cls-5" d="M512.31,163.77c-1.21.07-2.3-.32-3.3.64-.23.21-.62,1.49-.89,1.87-.78,1.07-1.85,1.72-2.57,2.84-1.3,2-.14,4,1.49,5.53.89.84,3.15,2.51,3.19,3.74.06,2.11-2.82.65-3.87-.08-.78.19-1.09,0-.94-.61a2,2,0,0,0-.26-1.3,16.44,16.44,0,0,0-1.4-1c-.83-.26-3,1.23-3.29-.23a7,7,0,0,1-3.75,2.54c-1.26.37-2.62.38-3.79,1.13-1.73,1.1-1.79,3-3,4.28-.76.79-1.7.86-2.56,1.58-.63.52-.76,1.47-1.45,2-.41.31-1,.39-1.4.66-1.36.95-1.83,2.13-3,3.25.1.58-.07.85-.52.82a4.91,4.91,0,0,1-1,.07,7.17,7.17,0,0,0-1.87,1.39c-.88,1-2.14,2.69-1.65,4.06-1.73-.49-3-1.8-4.73-2.32a17.85,17.85,0,0,0-5.31-.45c1.44-1.9,4.19-2.29,5.73-4.19.46-.56.89-1.69,1.28-2,.54-.39,1.58-.26,2.18-.57.75-.39,1.17-1.31,1.9-1.72s1.28-.42,1.95-.78a14.17,14.17,0,0,0,2.72-2.39c.31-.48.18-1.82.46-2s2.09.39,2.57.31c4.44-.76,6.89-3,5.36-7.42a9.42,9.42,0,0,0-1.71,1.56c-.25-.58-.17-1.67-.44-2.14-.35-.62-1-.67-1.32-1.52-1.09-2.77,1.42-2.5,1.93-4.6,1-4.26-6.86-1.13-8.48-.33-3.7,1.83-7.46,3.05-11.11,5.12-2.15,1.22-4.13,2.76-6.48,3.27-1.3.28-1.12.15-2.4-.15-.6-.14-1.33-.55-1.95-.21-1.3.74-.31,1.65-.21,2.43a1.94,1.94,0,0,1-.48,2,17.7,17.7,0,0,1-1.79,1.78,15.9,15.9,0,0,0-3.11,4.6c-.68,1.4-1.26,2.31-2.91,2.76a24.78,24.78,0,0,1-4.28.6c-2.88.29-3.55,1.55-6.56.68-2.76-.8-4.61-.83-7.08.41a29.38,29.38,0,0,1-4.39,1.72,21.34,21.34,0,0,1-2.67.6c-.74.11-.1.66-.41.7,0-1.36-.71-1.9-1.26-2.69s-1.18-.51-1.25-1.56,1-1.76,1.27-2.68.49-.22,0-1.37c0,0-1.36-1.83-1.44-1.86-.73-.28-3.92.38-4.42,1.23-.86-1.58-2.21-1.64-2.79-3.43-.49-1.51-.6-.8,0-2.17s-1.05-.86,1.41-1.34c2.08-.4,3.65.87,5.36-.07.41-.23.74-.84,1.28-1.11.16-.09,3.54-.61,1.91-1.32,1.75-.31.61.81,1.57.79.4,0,.72-.62,1.21-.67,1.77-.15,1.4-.34,2.51-1.14.61-.44,2.26-.95,2.59-1.65.69-1.5-1-1-1.11-1.93-.3-1.85,3.38-3.5,4.5-4.33a8.52,8.52,0,0,0,3.65-5.75c.42-2.26.55-1.62,2.78-2.22,1.18-.32,2.24-1.2,3.44-1.47.74-.16,1.36.09,2.08-.29a22.17,22.17,0,0,0,2.67-2.24c.5-.4.55-.77,1-1.14s1.26-.33,1.52-.88c.08-.18-.19-1.21-.29-1.11s.69-.47.75-.53.78,0,1.08-.23.32-1.19.54-1.58a10.13,10.13,0,0,1,3.26-3.5c1.71-1,3.21-.13,3.34-2.53,2-.12,3,1.81,4.69,2.38,1.51.5,3-.28,4.56,0s2.88,1.76,4.6,1.42c1-.22,2.19-1,1.42-2.27,1.58-.11.39-.89,1-1.9s2.41-1.7,3.39-2.27,4.35-2,4.35-3.55c.46.11,1.86,2.11,2.36,2.55s.51,1,1.31,1.27,1.35-.57,1.88.22-3.4,3.13-3.48,4.34c3,.22.09,2,1.69,2.71,1,.41,1-2.12,1.4-2.63a3.09,3.09,0,0,1,2.12-1c1.7.26.3.3,1.12,1.54a13.86,13.86,0,0,0,1.38,2c.27.29,1.17.53,1.3.92s-.37,1-.73,1.52-1,.49-1.31,1,.11,1-.11,1.42c-.75,1.24-1.18,1.23-1.62,2.6-.13.4.37.49.22,1-.2.73-1.21.44-1,1.49a7.15,7.15,0,0,1,2.34.36c1-2.53,2.84-3.2,5.35-2.26a12.74,12.74,0,0,0,5.4.74c1.2-.11,1.7-.85,3-.3a7.85,7.85,0,0,1,2,1.9c.92,1,.55.92,1,2.22.19.57,1.18,1.47,1.18,2C511.93,161.29,512.35,163.25,512.31,163.77Z"/>
<path class="cls-2" d="M486.59,179.59a9.3,9.3,0,0,1-1.58.58c-.52.08-2-.43-2.26-.34-1.32.45-.34,1.29-.92,2.18a14.12,14.12,0,0,1-2.9,2.55c-.27.16-.59,0-.83.13a12,12,0,0,0-1.91,1.38c-.91.73-1.8.73-2.67,1.28s-.57.8-1.1,1.44a17.38,17.38,0,0,1-4.6,3.51c-1.7,1.07-1.76,1.68-2.56,3.32a4,4,0,0,1-1.23,1.79c-1.2.71-1.45.35-1.5-1.34-1.47.15-.89,2.54-1.5,3.49-.37.57-1,.71-1.44,1.2-1.34,1.66-.64,2.55-.91,4-.1.57-.84.84-.95,1.38-.2,1,.72,1.93,0,3-.92,1.35-2,.94-3.11.45s.2-1.35-1.22-1.13-.21.26-.47.77a1,1,0,0,1,.21,1c-.37.86-2,1.27-2.54,2.07-.41.63-.27,1.47-.86,2.11-.28.31-1.15.51-1.39.84-1.23,1.65.56,1,1.48,2.06.71.85.2,2.69.63,3.73-2.28.42-2.44,3.25-3.06,4.85l-.51.09a2.79,2.79,0,0,1,0,1.76c0,.26-.14,1-.17,1.08-.76,3.08-.52.28-1.51,1.65h-.62c0,.51-.06,1-.08,1.53-.16,1,.08,2.08-.09,3.11-.11.67-.64,3.27-1,3.55s-.85-.12-1.2,0-1.88.74-2,.74c-.85,0-1.27-.94-2-1.66a6.11,6.11,0,0,1-1.56,3.55c.19-.19-.43.95-.28.69-.07.12-.58,0-.63.05-.45.76-.73,2.78-2.36,2.46-1-.2-.63-.95-.66-2.08-1.25.15-2.49.34-3.74.48a49.43,49.43,0,0,1,.84-4.92,10,10,0,0,1,.18-2c.17-.47.9-.8,1-1.23.3-1.36-1.11-2.15-.66-3.5.42,0,6.11,2.62,4.26-.46-.58-1-2.51-.5-1.82-2.51.43-1.27,2.22-1,1-1.84,1.39-.5,5.33-2.73,4.75-4.41-.74-2.18-4.41-1.84-2.72-5.25-2-.12-2.36-1.78-4.07-2-1.52-.2-2.7,1.29-4.2,1.22,0-1.43,1.14-4.43-.89-4.69.44-1.19,1.22-1.32,2.08-2a32.37,32.37,0,0,0-3.63.32c-.51.07-.73.52-1.29.55s-1.25-.55-1.9-.51c-1.65.1-1.13.58-1.65,2.18-.2.61-.58,1.21-.81,1.83-.41-1.07-.62-3-2.16-2.63s-1.07,1.91-.22,2.7c-1.62.61-2.8.37-3.82,1.65-1.38,1.72-3.05,1.9-2.94-1.2-1.83-.11-.7,1.52-2.61.5-.27-.14-.34-.71-.69-.92s-.6,0-.93-.14a7.9,7.9,0,0,0-3.43-.41,20.09,20.09,0,0,1-4.6-.31,7.53,7.53,0,0,0-2-.07,7.62,7.62,0,0,0-1.6.17c-.4.15-.45.53-.76.66-1.46.62-3.4.1-4.7.78A6.73,6.73,0,0,0,387.7,216c-.31.92,0,.62.13,1.11.26,1.43,1.79,3.59-.75,3.63s-1.44-3.08-1.66-4.84c-.68,1.86,0-1.67,0-2-.05-.86-.31-.84-.5-1.54s-.27-2.89-.84-3.41c-1.65-1.51-1.55.88-2.43,1.44a5.39,5.39,0,0,1,.25-1.84c.35-.58.89-.55,1.12-.84a31.55,31.55,0,0,0,2-2.81c.2-.35.77-.77.82-1.21s-.65-.25-.71-.64a7.83,7.83,0,0,1-.23-2.22c.21-1.82.7-2.48,2.29-3.07,1.29-.48,3.68-.4,4.74-1.34.73-.64.68-1.43,1.27-1.84,2.2-1.51,5.24,1.81,7.3,2.14,2.91.46,5.77-.16,8.59-.09a5.12,5.12,0,0,0,2.1-.18c.79-.36.38-.88,1.28-1.27,1.18-.5,1.71-.37,1.77,1,.86.17,1.33-.59,2.1-.69a14.34,14.34,0,0,0,2.09-.11c1.09-.32,1.77-2,2.14.34.9-.57.09-1.59.57-1.94s1,.16,1.17.14c.71-.08,3.63-.14,3.16-1.43,2.35-.85,4.64-1.18,6.92-2.26a16,16,0,0,1,2.38-1.12c2-.34,3.8,1,5.71,1.21s2.81-.67,4.59-1.1c1.15-.27,2.5-.34,3.62-.58.71-.15,1.62.13,2.3-.11,1.23-.44,1.48-2.24,2.8-2.28-.25-2.56,1.62-4,3.31-5.74.59-.59,1.67-1.36,2-2.12.41-1-.42-1.63-.46-2.14-.06-.72-.21-1,.53-1.32s1.91,1,2.68,1a8,8,0,0,0,2.25-.83c1.59-.6,12-7.54,13.18-6-1-1.32,3.76-2.22,4.84-2.74s5.58-2.33,6.43-.61c.53,1.07-1.77,2-2.07,2.63-.78,1.65.43,3.26,1,4.51.2.47.4,1.89.85,2.35.94.95.87.06,2-.76l.31.88C491.52,178.26,488.53,179,486.59,179.59Z"/></g></g></svg>